0
SECTION
2
HEADER
9
$INSUNITS
70
4
0
ENDSEC
0
SECTION
2
TABLES
0
TABLE
2
LTYPE
0
LTYPE
72
65
70
64
2
CONTINUOUS
3
______
73
0
40
0
0
ENDTAB
0
TABLE
2
LAYER
0
ENDTAB
0
ENDSEC
0
SECTION
2
ENTITIES
0
LINE
8
0
10
41.5
20
-107
11
41.5
21
-59
0
LINE
8
0
10
43
20
-57.5
11
57
21
-57.5
0
LINE
8
0
10
58.5
20
-56
11
58.5
21
-46.427
0
LINE
8
0
10
60
20
-44.927
11
74
21
-44.927
0
LINE
8
0
10
75.5
20
-43.427
11
75.5
21
-41.6645
0
LINE
8
0
10
77
20
-40.1645
11
91
21
-40.1645
0
LINE
8
0
10
92.5
20
-41.6645
11
92.5
21
-43.427
0
LINE
8
0
10
94
20
-44.927
11
108
21
-44.927
0
LINE
8
0
10
109.5
20
-46.427
11
109.5
21
-47.7845
0
LINE
8
0
10
109.5
20
-47.7845
11
163.5
21
-47.7845
0
LINE
8
0
10
165
20
-49.2845
11
165
21
-102.6826806
0
LINE
8
0
10
164.0745983
20
-104.0682624
11
147.0385483
21
-111.1330815
0
LINE
8
0
10
146.2036077
20
-112.0056331
11
141.1279076
21
-125.9510046
0
LINE
8
0
10
139.2053385
20
-126.8475133
11
125.2228796
21
-121.7583144
0
LINE
8
0
10
124.9919147
20
-121.6946124
11
106.4237132
21
-118.139563
0
LINE
8
0
10
106.1636024
20
-118.1129647
11
88.6180456
21
-117.8561354
0
LINE
8
0
10
87.14
20
-116.3562961
11
87.14
21
-97.5407282
0
LINE
8
0
10
85.6462849
20
-96.0407414
11
60.0062849
21
-95.9333112
0
LINE
8
0
10
58.5
20
-97.433298
11
58.5
21
-107
0
LINE
8
0
10
57
20
-108.5
11
43
21
-108.5
0
ARC
8
0
10
43
20
-59
40
1.5
50
90
51
180
0
ARC
8
0
10
57
20
-56
40
1.5
50
270
51
0
0
ARC
8
0
10
60
20
-46.427
40
1.5
50
90
51
180
0
ARC
8
0
10
74
20
-43.427
40
1.5
50
270
51
0
0
ARC
8
0
10
77
20
-41.6645
40
1.5
50
90
51
180
0
ARC
8
0
10
91
20
-41.6645
40
1.5
50
0
51
90
0
ARC
8
0
10
94
20
-43.427
40
1.5
50
180
51
270
0
ARC
8
0
10
108
20
-46.427
40
1.5
50
0
51
90
0
ARC
8
0
10
163.5
20
-49.2845
40
1.5
50
0
51
90
0
ARC
8
0
10
163.5
20
-102.6826806
40
1.5
50
292.5236961
51
0
0
ARC
8
0
10
147.6131466
20
-112.5186633
40
1.5
50
112.5236961
51
160.0000019
0
ARC
8
0
10
139.7183687
20
-125.4379744
40
1.5
50
250.0000019
51
340.0000019
0
ARC
8
0
10
124.7098495
20
-123.1678534
40
1.5
50
70.0000019
51
79.1613729
0
ARC
8
0
10
106.1416479
20
-119.612804
40
1.5
50
79.1613729
51
89.1613719
0
ARC
8
0
10
88.64
20
-116.3562961
40
1.5
50
180
51
269.1613719
0
ARC
8
0
10
85.64
20
-97.5407282
40
1.5
50
0
51
89.7599357
0
ARC
8
0
10
60
20
-97.433298
40
1.5
50
89.7599357
51
180
0
ARC
8
0
10
57
20
-107
40
1.5
50
270
51
0
0
ARC
8
0
10
43
20
-107
40
1.5
50
180
51
270
0
LINE
8
0
10
300.5
20
-107
11
300.5
21
-59
0
LINE
8
0
10
299
20
-57.5
11
285
21
-57.5
0
LINE
8
0
10
283.5
20
-56
11
283.5
21
-46.427
0
LINE
8
0
10
282
20
-44.927
11
268
21
-44.927
0
LINE
8
0
10
266.5
20
-43.427
11
266.5
21
-41.6645
0
LINE
8
0
10
265
20
-40.1645
11
251
21
-40.1645
0
LINE
8
0
10
249.5
20
-41.6645
11
249.5
21
-43.427
0
LINE
8
0
10
248
20
-44.927
11
234
21
-44.927
0
LINE
8
0
10
232.5
20
-46.427
11
232.5
21
-47.7845
0
LINE
8
0
10
178.5
20
-47.7845
11
232.5
21
-47.7845
0
LINE
8
0
10
177
20
-49.2845
11
177
21
-102.6826806
0
LINE
8
0
10
177.9254017
20
-104.0682624
11
194.9614517
21
-111.1330815
0
LINE
8
0
10
195.7963923
20
-112.0056331
11
200.8720924
21
-125.9510046
0
LINE
8
0
10
202.7946615
20
-126.8475133
11
216.7771204
21
-121.7583144
0
LINE
8
0
10
217.0080853
20
-121.6946124
11
235.5762868
21
-118.139563
0
LINE
8
0
10
235.8363976
20
-118.1129647
11
253.3819544
21
-117.8561354
0
LINE
8
0
10
254.86
20
-116.3562961
11
254.86
21
-97.5407282
0
LINE
8
0
10
256.3537151
20
-96.0407414
11
281.9937151
21
-95.9333112
0
LINE
8
0
10
283.5
20
-97.433298
11
283.5
21
-107
0
LINE
8
0
10
285
20
-108.5
11
299
21
-108.5
0
ARC
8
0
10
299
20
-59
40
1.5
50
0
51
90
0
ARC
8
0
10
285
20
-56
40
1.5
50
180
51
270
0
ARC
8
0
10
282
20
-46.427
40
1.5
50
0
51
90
0
ARC
8
0
10
268
20
-43.427
40
1.5
50
180
51
270
0
ARC
8
0
10
265
20
-41.6645
40
1.5
50
0
51
90
0
ARC
8
0
10
251
20
-41.6645
40
1.5
50
90
51
180
0
ARC
8
0
10
248
20
-43.427
40
1.5
50
270
51
0
0
ARC
8
0
10
234
20
-46.427
40
1.5
50
90
51
180
0
ARC
8
0
10
178.5
20
-49.2845
40
1.5
50
90
51
180
0
ARC
8
0
10
178.5
20
-102.6826806
40
1.5
50
180
51
247.4763039
0
ARC
8
0
10
194.3868534
20
-112.5186633
40
1.5
50
19.9999981
51
67.4763039
0
ARC
8
0
10
202.2816313
20
-125.4379744
40
1.5
50
199.9999981
51
289.9999981
0
ARC
8
0
10
217.2901505
20
-123.1678534
40
1.5
50
100.8386271
51
109.9999981
0
ARC
8
0
10
235.8583521
20
-119.612804
40
1.5
50
90.8386281
51
100.8386271
0
ARC
8
0
10
253.36
20
-116.3562961
40
1.5
50
270.8386281
51
0
0
ARC
8
0
10
256.36
20
-97.5407282
40
1.5
50
90.2400643
51
180
0
ARC
8
0
10
282
20
-97.433298
40
1.5
50
0
51
90.2400643
0
ARC
8
0
10
285
20
-107
40
1.5
50
180
51
270
0
ARC
8
0
10
299
20
-107
40
1.5
50
270
51
0
0
ENDSEC
0
EOF