0
SECTION
2
HEADER
9
$INSUNITS
70
4
0
ENDSEC
0
SECTION
2
TABLES
0
TABLE
2
LTYPE
0
LTYPE
72
65
70
64
2
CONTINUOUS
3
______
73
0
40
0
0
ENDTAB
0
TABLE
2
LAYER
0
ENDTAB
0
ENDSEC
0
SECTION
2
ENTITIES
0
LINE
8
0
10
37.5
20
-111
11
37.5
21
-55
0
LINE
8
0
10
39
20
-53.5
11
53
21
-53.5
0
LINE
8
0
10
54.5
20
-52
11
54.5
21
-42.427
0
LINE
8
0
10
56
20
-40.927
11
70
21
-40.927
0
LINE
8
0
10
71.5
20
-39.427
11
71.5
21
-37.6645
0
LINE
8
0
10
73
20
-36.1645
11
95
21
-36.1645
0
LINE
8
0
10
96.5
20
-37.6645
11
96.5
21
-39.427
0
LINE
8
0
10
98
20
-40.927
11
112
21
-40.927
0
LINE
8
0
10
113.5
20
-42.427
11
113.5
21
-43.7845
0
LINE
8
0
10
113.5
20
-43.7845
11
166
21
-43.7845
0
LINE
8
0
10
167.5
20
-45.2845
11
167.5
21
-102.8453567
0
LINE
8
0
10
166.7849123
20
-104.1236026
11
155.2595433
21
-111.2008041
0
LINE
8
0
10
154.6349167
20
-111.9660199
11
146.7763394
21
-133.5572834
0
LINE
8
0
10
144.8537703
20
-134.4537922
11
123.3757921
21
-126.6364474
0
LINE
8
0
10
123.0990202
20
-126.5647091
11
103.4445913
21
-123.4298999
0
LINE
8
0
10
103.1837809
20
-123.411378
11
84.6645522
21
-123.7145427
0
LINE
8
0
10
83.14
20
-122.2147436
11
83.14
21
-101.0748704
0
LINE
8
0
10
81.6123885
20
-99.5751246
11
63.9723885
21
-99.8998921
0
LINE
8
0
10
62.5
20
-101.3996379
11
62.5
21
-111
0
LINE
8
0
10
61
20
-112.5
11
39
21
-112.5
0
ARC
8
0
10
39
20
-55
40
1.5
50
90
51
180
0
ARC
8
0
10
53
20
-52
40
1.5
50
270
51
0
0
ARC
8
0
10
56
20
-42.427
40
1.5
50
90
51
180
0
ARC
8
0
10
70
20
-39.427
40
1.5
50
270
51
0
0
ARC
8
0
10
73
20
-37.6645
40
1.5
50
90
51
180
0
ARC
8
0
10
95
20
-37.6645
40
1.5
50
0
51
90
0
ARC
8
0
10
98
20
-39.427
40
1.5
50
180
51
270
0
ARC
8
0
10
112
20
-42.427
40
1.5
50
0
51
90
0
ARC
8
0
10
166
20
-45.2845
40
1.5
50
0
51
90
0
ARC
8
0
10
166
20
-102.8453567
40
1.5
50
301.552181
51
0
0
ARC
8
0
10
156.0444556
20
-112.47905
40
1.5
50
121.552181
51
160.0000019
0
ARC
8
0
10
145.3668005
20
-133.0442533
40
1.5
50
250.0000019
51
340.0000019
0
ARC
8
0
10
122.862762
20
-128.0459863
40
1.5
50
70.0000019
51
80.9378638
0
ARC
8
0
10
103.208333
20
-124.9111771
40
1.5
50
80.9378638
51
90.937865
0
ARC
8
0
10
84.64
20
-122.2147436
40
1.5
50
180
51
270.937865
0
ARC
8
0
10
81.64
20
-101.0748704
40
1.5
50
0
51
91.0547431
0
ARC
8
0
10
64
20
-101.3996379
40
1.5
50
91.0547431
51
180
0
ARC
8
0
10
61
20
-111
40
1.5
50
270
51
0
0
ARC
8
0
10
39
20
-111
40
1.5
50
180
51
270
0
LINE
8
0
10
304.5
20
-111
11
304.5
21
-55
0
LINE
8
0
10
303
20
-53.5
11
289
21
-53.5
0
LINE
8
0
10
287.5
20
-52
11
287.5
21
-42.427
0
LINE
8
0
10
286
20
-40.927
11
272
21
-40.927
0
LINE
8
0
10
270.5
20
-39.427
11
270.5
21
-37.6645
0
LINE
8
0
10
269
20
-36.1645
11
247
21
-36.1645
0
LINE
8
0
10
245.5
20
-37.6645
11
245.5
21
-39.427
0
LINE
8
0
10
244
20
-40.927
11
230
21
-40.927
0
LINE
8
0
10
228.5
20
-42.427
11
228.5
21
-43.7845
0
LINE
8
0
10
176
20
-43.7845
11
228.5
21
-43.7845
0
LINE
8
0
10
174.5
20
-45.2845
11
174.5
21
-102.8453567
0
LINE
8
0
10
175.2150877
20
-104.1236026
11
186.7404567
21
-111.2008041
0
LINE
8
0
10
187.3650833
20
-111.9660199
11
195.2236606
21
-133.5572834
0
LINE
8
0
10
197.1462297
20
-134.4537922
11
218.6242079
21
-126.6364474
0
LINE
8
0
10
218.9009798
20
-126.5647091
11
238.5554087
21
-123.4298999
0
LINE
8
0
10
238.8162191
20
-123.411378
11
257.3354478
21
-123.7145427
0
LINE
8
0
10
258.86
20
-122.2147436
11
258.86
21
-101.0748704
0
LINE
8
0
10
260.3876115
20
-99.5751246
11
278.0276115
21
-99.8998921
0
LINE
8
0
10
279.5
20
-101.3996379
11
279.5
21
-111
0
LINE
8
0
10
281
20
-112.5
11
303
21
-112.5
0
ARC
8
0
10
303
20
-55
40
1.5
50
0
51
90
0
ARC
8
0
10
289
20
-52
40
1.5
50
180
51
270
0
ARC
8
0
10
286
20
-42.427
40
1.5
50
0
51
90
0
ARC
8
0
10
272
20
-39.427
40
1.5
50
180
51
270
0
ARC
8
0
10
269
20
-37.6645
40
1.5
50
0
51
90
0
ARC
8
0
10
247
20
-37.6645
40
1.5
50
90
51
180
0
ARC
8
0
10
244
20
-39.427
40
1.5
50
270
51
0
0
ARC
8
0
10
230
20
-42.427
40
1.5
50
90
51
180
0
ARC
8
0
10
176
20
-45.2845
40
1.5
50
90
51
180
0
ARC
8
0
10
176
20
-102.8453567
40
1.5
50
180
51
238.447819
0
ARC
8
0
10
185.9555444
20
-112.47905
40
1.5
50
19.9999981
51
58.447819
0
ARC
8
0
10
196.6331995
20
-133.0442533
40
1.5
50
199.9999981
51
289.9999981
0
ARC
8
0
10
219.137238
20
-128.0459863
40
1.5
50
99.0621362
51
109.9999981
0
ARC
8
0
10
238.791667
20
-124.9111771
40
1.5
50
89.062135
51
99.0621362
0
ARC
8
0
10
257.36
20
-122.2147436
40
1.5
50
269.062135
51
0
0
ARC
8
0
10
260.36
20
-101.0748704
40
1.5
50
88.9452569
51
180
0
ARC
8
0
10
278
20
-101.3996379
40
1.5
50
0
51
88.9452569
0
ARC
8
0
10
281
20
-111
40
1.5
50
180
51
270
0
ARC
8
0
10
303
20
-111
40
1.5
50
270
51
0
0
ENDSEC
0
EOF