0
SECTION
2
HEADER
9
$INSUNITS
70
4
0
ENDSEC
0
SECTION
2
TABLES
0
TABLE
2
LTYPE
0
LTYPE
72
65
70
64
2
CONTINUOUS
3
______
73
0
40
0
0
ENDTAB
0
TABLE
2
LAYER
0
ENDTAB
0
ENDSEC
0
SECTION
2
ENTITIES
0
LINE
8
0
10
42
20
-108
11
58
21
-108
0
LINE
8
0
10
58
20
-108
11
58
21
-92
0
LINE
8
0
10
58
20
-92
11
42
21
-92
0
LINE
8
0
10
42
20
-92
11
42
21
-108
0
LINE
8
0
10
42
20
-91
11
58
21
-91
0
LINE
8
0
10
58
20
-91
11
58
21
-75
0
LINE
8
0
10
58
20
-75
11
42
21
-75
0
LINE
8
0
10
42
20
-75
11
42
21
-91
0
LINE
8
0
10
42
20
-74
11
58
21
-74
0
LINE
8
0
10
58
20
-74
11
58
21
-58
0
LINE
8
0
10
58
20
-58
11
42
21
-58
0
LINE
8
0
10
42
20
-58
11
42
21
-74
0
LINE
8
0
10
59
20
-95.427
11
75
21
-95.427
0
LINE
8
0
10
75
20
-95.427
11
75
21
-79.427
0
LINE
8
0
10
75
20
-79.427
11
59
21
-79.427
0
LINE
8
0
10
59
20
-79.427
11
59
21
-95.427
0
LINE
8
0
10
59
20
-78.427
11
75
21
-78.427
0
LINE
8
0
10
75
20
-78.427
11
75
21
-62.427
0
LINE
8
0
10
75
20
-62.427
11
59
21
-62.427
0
LINE
8
0
10
59
20
-62.427
11
59
21
-78.427
0
LINE
8
0
10
59
20
-61.427
11
75
21
-61.427
0
LINE
8
0
10
75
20
-61.427
11
75
21
-45.427
0
LINE
8
0
10
75
20
-45.427
11
59
21
-45.427
0
LINE
8
0
10
59
20
-45.427
11
59
21
-61.427
0
LINE
8
0
10
76
20
-90.6645
11
92
21
-90.6645
0
LINE
8
0
10
92
20
-90.6645
11
92
21
-74.6645
0
LINE
8
0
10
92
20
-74.6645
11
76
21
-74.6645
0
LINE
8
0
10
76
20
-74.6645
11
76
21
-90.6645
0
LINE
8
0
10
76
20
-73.6645
11
92
21
-73.6645
0
LINE
8
0
10
92
20
-73.6645
11
92
21
-57.6645
0
LINE
8
0
10
92
20
-57.6645
11
76
21
-57.6645
0
LINE
8
0
10
76
20
-57.6645
11
76
21
-73.6645
0
LINE
8
0
10
76
20
-56.6645
11
92
21
-56.6645
0
LINE
8
0
10
92
20
-56.6645
11
92
21
-40.6645
0
LINE
8
0
10
92
20
-40.6645
11
76
21
-40.6645
0
LINE
8
0
10
76
20
-40.6645
11
76
21
-56.6645
0
LINE
8
0
10
93
20
-95.427
11
109
21
-95.427
0
LINE
8
0
10
109
20
-95.427
11
109
21
-79.427
0
LINE
8
0
10
109
20
-79.427
11
93
21
-79.427
0
LINE
8
0
10
93
20
-79.427
11
93
21
-95.427
0
LINE
8
0
10
93
20
-78.427
11
109
21
-78.427
0
LINE
8
0
10
109
20
-78.427
11
109
21
-62.427
0
LINE
8
0
10
109
20
-62.427
11
93
21
-62.427
0
LINE
8
0
10
93
20
-62.427
11
93
21
-78.427
0
LINE
8
0
10
93
20
-61.427
11
109
21
-61.427
0
LINE
8
0
10
109
20
-61.427
11
109
21
-45.427
0
LINE
8
0
10
109
20
-45.427
11
93
21
-45.427
0
LINE
8
0
10
93
20
-45.427
11
93
21
-61.427
0
LINE
8
0
10
110
20
-98.2845
11
126
21
-98.2845
0
LINE
8
0
10
126
20
-98.2845
11
126
21
-82.2845
0
LINE
8
0
10
126
20
-82.2845
11
110
21
-82.2845
0
LINE
8
0
10
110
20
-82.2845
11
110
21
-98.2845
0
LINE
8
0
10
110
20
-81.2845
11
126
21
-81.2845
0
LINE
8
0
10
126
20
-81.2845
11
126
21
-65.2845
0
LINE
8
0
10
126
20
-65.2845
11
110
21
-65.2845
0
LINE
8
0
10
110
20
-65.2845
11
110
21
-81.2845
0
LINE
8
0
10
110
20
-64.2845
11
126
21
-64.2845
0
LINE
8
0
10
126
20
-64.2845
11
126
21
-48.2845
0
LINE
8
0
10
126
20
-48.2845
11
110
21
-48.2845
0
LINE
8
0
10
110
20
-48.2845
11
110
21
-64.2845
0
LINE
8
0
10
87.14
20
-117.3345
11
103.14
21
-117.3345
0
LINE
8
0
10
103.14
20
-117.3345
11
103.14
21
-101.3345
0
LINE
8
0
10
103.14
20
-101.3345
11
87.14
21
-101.3345
0
LINE
8
0
10
87.14
20
-117.3345
11
87.14
21
-97.5407282
0
LINE
8
0
10
106.3816453
20
-117.6224816
11
122.1385693
21
-120.4008524
0
LINE
8
0
10
122.1385693
20
-120.4008524
11
124.9169401
21
-104.6439284
0
LINE
8
0
10
124.9169401
20
-104.6439284
11
109.1600161
21
-101.8655576
0
LINE
8
0
10
109.1600161
20
-101.8655576
11
106.3816453
21
-117.6224816
0
LINE
8
0
10
125.2809592
20
-121.2473648
11
140.3160411
21
-126.7196871
0
LINE
8
0
10
140.3160411
20
-126.7196871
11
145.7883634
21
-111.6846052
0
LINE
8
0
10
145.7883634
20
-111.6846052
11
130.7532815
21
-106.2122829
0
LINE
8
0
10
130.7532815
20
-106.2122829
11
125.2809592
21
-121.2473648
0
LINE
8
0
10
284
20
-108
11
300
21
-108
0
LINE
8
0
10
300
20
-108
11
300
21
-92
0
LINE
8
0
10
300
20
-92
11
284
21
-92
0
LINE
8
0
10
284
20
-92
11
284
21
-108
0
LINE
8
0
10
284
20
-91
11
300
21
-91
0
LINE
8
0
10
300
20
-91
11
300
21
-75
0
LINE
8
0
10
300
20
-75
11
284
21
-75
0
LINE
8
0
10
284
20
-75
11
284
21
-91
0
LINE
8
0
10
284
20
-74
11
300
21
-74
0
LINE
8
0
10
300
20
-74
11
300
21
-58
0
LINE
8
0
10
300
20
-58
11
284
21
-58
0
LINE
8
0
10
284
20
-58
11
284
21
-74
0
LINE
8
0
10
267
20
-95.427
11
283
21
-95.427
0
LINE
8
0
10
283
20
-95.427
11
283
21
-79.427
0
LINE
8
0
10
283
20
-79.427
11
267
21
-79.427
0
LINE
8
0
10
267
20
-79.427
11
267
21
-95.427
0
LINE
8
0
10
267
20
-78.427
11
283
21
-78.427
0
LINE
8
0
10
283
20
-78.427
11
283
21
-62.427
0
LINE
8
0
10
283
20
-62.427
11
267
21
-62.427
0
LINE
8
0
10
267
20
-62.427
11
267
21
-78.427
0
LINE
8
0
10
267
20
-61.427
11
283
21
-61.427
0
LINE
8
0
10
283
20
-61.427
11
283
21
-45.427
0
LINE
8
0
10
283
20
-45.427
11
267
21
-45.427
0
LINE
8
0
10
267
20
-45.427
11
267
21
-61.427
0
LINE
8
0
10
250
20
-90.6645
11
266
21
-90.6645
0
LINE
8
0
10
266
20
-90.6645
11
266
21
-74.6645
0
LINE
8
0
10
266
20
-74.6645
11
250
21
-74.6645
0
LINE
8
0
10
250
20
-74.6645
11
250
21
-90.6645
0
LINE
8
0
10
250
20
-73.6645
11
266
21
-73.6645
0
LINE
8
0
10
266
20
-73.6645
11
266
21
-57.6645
0
LINE
8
0
10
266
20
-57.6645
11
250
21
-57.6645
0
LINE
8
0
10
250
20
-57.6645
11
250
21
-73.6645
0
LINE
8
0
10
250
20
-56.6645
11
266
21
-56.6645
0
LINE
8
0
10
266
20
-56.6645
11
266
21
-40.6645
0
LINE
8
0
10
266
20
-40.6645
11
250
21
-40.6645
0
LINE
8
0
10
250
20
-40.6645
11
250
21
-56.6645
0
LINE
8
0
10
233
20
-95.427
11
249
21
-95.427
0
LINE
8
0
10
249
20
-95.427
11
249
21
-79.427
0
LINE
8
0
10
249
20
-79.427
11
233
21
-79.427
0
LINE
8
0
10
233
20
-79.427
11
233
21
-95.427
0
LINE
8
0
10
233
20
-78.427
11
249
21
-78.427
0
LINE
8
0
10
249
20
-78.427
11
249
21
-62.427
0
LINE
8
0
10
249
20
-62.427
11
233
21
-62.427
0
LINE
8
0
10
233
20
-62.427
11
233
21
-78.427
0
LINE
8
0
10
233
20
-61.427
11
249
21
-61.427
0
LINE
8
0
10
249
20
-61.427
11
249
21
-45.427
0
LINE
8
0
10
249
20
-45.427
11
233
21
-45.427
0
LINE
8
0
10
233
20
-45.427
11
233
21
-61.427
0
LINE
8
0
10
216
20
-98.2845
11
232
21
-98.2845
0
LINE
8
0
10
232
20
-98.2845
11
232
21
-82.2845
0
LINE
8
0
10
232
20
-82.2845
11
216
21
-82.2845
0
LINE
8
0
10
216
20
-82.2845
11
216
21
-98.2845
0
LINE
8
0
10
216
20
-81.2845
11
232
21
-81.2845
0
LINE
8
0
10
232
20
-81.2845
11
232
21
-65.2845
0
LINE
8
0
10
232
20
-65.2845
11
216
21
-65.2845
0
LINE
8
0
10
216
20
-65.2845
11
216
21
-81.2845
0
LINE
8
0
10
216
20
-64.2845
11
232
21
-64.2845
0
LINE
8
0
10
232
20
-64.2845
11
232
21
-48.2845
0
LINE
8
0
10
232
20
-48.2845
11
216
21
-48.2845
0
LINE
8
0
10
216
20
-48.2845
11
216
21
-64.2845
0
LINE
8
0
10
238.86
20
-117.3345
11
254.86
21
-117.3345
0
LINE
8
0
10
254.86
20
-117.3345
11
254.86
21
-97.5407282
0
LINE
8
0
10
254.86
20
-101.3345
11
238.86
21
-101.3345
0
LINE
8
0
10
238.86
20
-101.3345
11
238.86
21
-117.3345
0
LINE
8
0
10
219.8614307
20
-120.4008524
11
235.6183547
21
-117.6224816
0
LINE
8
0
10
235.6183547
20
-117.6224816
11
232.8399839
21
-101.8655576
0
LINE
8
0
10
232.8399839
20
-101.8655576
11
217.0830599
21
-104.6439284
0
LINE
8
0
10
217.0830599
20
-104.6439284
11
219.8614307
21
-120.4008524
0
LINE
8
0
10
201.6839589
20
-126.7196871
11
216.7190408
21
-121.2473648
0
LINE
8
0
10
216.7190408
20
-121.2473648
11
211.2467185
21
-106.2122829
0
LINE
8
0
10
211.2467185
20
-106.2122829
11
196.2116366
21
-111.6846052
0
LINE
8
0
10
196.2116366
20
-111.6846052
11
201.6839589
21
-126.7196871
0
LINE
8
0
10
41.5
20
-107
11
41.5
21
-59
0
LINE
8
0
10
43
20
-57.5
11
57
21
-57.5
0
LINE
8
0
10
58.5
20
-56
11
58.5
21
-46.427
0
LINE
8
0
10
60
20
-44.927
11
74
21
-44.927
0
LINE
8
0
10
75.5
20
-43.427
11
75.5
21
-41.6645
0
LINE
8
0
10
77
20
-40.1645
11
91
21
-40.1645
0
LINE
8
0
10
92.5
20
-41.6645
11
92.5
21
-43.427
0
LINE
8
0
10
94
20
-44.927
11
108
21
-44.927
0
LINE
8
0
10
109.5
20
-46.427
11
109.5
21
-47.7845
0
LINE
8
0
10
109.5
20
-47.7845
11
163.5
21
-47.7845
0
LINE
8
0
10
165
20
-49.2845
11
165
21
-102.6826806
0
LINE
8
0
10
164.0745983
20
-104.0682624
11
147.0385483
21
-111.1330815
0
LINE
8
0
10
146.2036077
20
-112.0056331
11
141.1279076
21
-125.9510046
0
LINE
8
0
10
139.2053385
20
-126.8475133
11
125.2228796
21
-121.7583144
0
LINE
8
0
10
124.9919147
20
-121.6946124
11
106.4237132
21
-118.139563
0
LINE
8
0
10
106.1636024
20
-118.1129647
11
88.6180456
21
-117.8561354
0
LINE
8
0
10
85.6462849
20
-96.0407414
11
60.0062849
21
-95.9333112
0
LINE
8
0
10
58.5
20
-97.433298
11
58.5
21
-107
0
LINE
8
0
10
57
20
-108.5
11
43
21
-108.5
0
ARC
8
0
10
43
20
-59
40
1.5
50
90
51
180
0
ARC
8
0
10
57
20
-56
40
1.5
50
270
51
0
0
ARC
8
0
10
60
20
-46.427
40
1.5
50
90
51
180
0
ARC
8
0
10
74
20
-43.427
40
1.5
50
270
51
0
0
ARC
8
0
10
77
20
-41.6645
40
1.5
50
90
51
180
0
ARC
8
0
10
91
20
-41.6645
40
1.5
50
0
51
90
0
ARC
8
0
10
94
20
-43.427
40
1.5
50
180
51
270
0
ARC
8
0
10
108
20
-46.427
40
1.5
50
0
51
90
0
ARC
8
0
10
163.5
20
-49.2845
40
1.5
50
0
51
90
0
ARC
8
0
10
163.5
20
-102.6826806
40
1.5
50
292.5236961
51
0
0
ARC
8
0
10
147.6131466
20
-112.5186633
40
1.5
50
112.5236961
51
160.0000019
0
ARC
8
0
10
139.7183687
20
-125.4379744
40
1.5
50
250.0000019
51
340.0000019
0
ARC
8
0
10
124.7098495
20
-123.1678534
40
1.5
50
70.0000019
51
79.1613729
0
ARC
8
0
10
106.1416479
20
-119.612804
40
1.5
50
79.1613729
51
89.1613719
0
ARC
8
0
10
88.64
20
-116.3562961
40
1.5
50
180
51
269.1613719
0
ARC
8
0
10
85.64
20
-97.5407282
40
1.5
50
0
51
89.7599357
0
ARC
8
0
10
60
20
-97.433298
40
1.5
50
89.7599357
51
180
0
ARC
8
0
10
57
20
-107
40
1.5
50
270
51
0
0
ARC
8
0
10
43
20
-107
40
1.5
50
180
51
270
0
LINE
8
0
10
300.5
20
-107
11
300.5
21
-59
0
LINE
8
0
10
299
20
-57.5
11
285
21
-57.5
0
LINE
8
0
10
283.5
20
-56
11
283.5
21
-46.427
0
LINE
8
0
10
282
20
-44.927
11
268
21
-44.927
0
LINE
8
0
10
266.5
20
-43.427
11
266.5
21
-41.6645
0
LINE
8
0
10
265
20
-40.1645
11
251
21
-40.1645
0
LINE
8
0
10
249.5
20
-41.6645
11
249.5
21
-43.427
0
LINE
8
0
10
248
20
-44.927
11
234
21
-44.927
0
LINE
8
0
10
232.5
20
-46.427
11
232.5
21
-47.7845
0
LINE
8
0
10
178.5
20
-47.7845
11
232.5
21
-47.7845
0
LINE
8
0
10
177
20
-49.2845
11
177
21
-102.6826806
0
LINE
8
0
10
177.9254017
20
-104.0682624
11
194.9614517
21
-111.1330815
0
LINE
8
0
10
195.7963923
20
-112.0056331
11
200.8720924
21
-125.9510046
0
LINE
8
0
10
202.7946615
20
-126.8475133
11
216.7771204
21
-121.7583144
0
LINE
8
0
10
217.0080853
20
-121.6946124
11
235.5762868
21
-118.139563
0
LINE
8
0
10
235.8363976
20
-118.1129647
11
253.3819544
21
-117.8561354
0
LINE
8
0
10
256.3537151
20
-96.0407414
11
281.9937151
21
-95.9333112
0
LINE
8
0
10
283.5
20
-97.433298
11
283.5
21
-107
0
LINE
8
0
10
285
20
-108.5
11
299
21
-108.5
0
ARC
8
0
10
299
20
-59
40
1.5
50
0
51
90
0
ARC
8
0
10
285
20
-56
40
1.5
50
180
51
270
0
ARC
8
0
10
282
20
-46.427
40
1.5
50
0
51
90
0
ARC
8
0
10
268
20
-43.427
40
1.5
50
180
51
270
0
ARC
8
0
10
265
20
-41.6645
40
1.5
50
0
51
90
0
ARC
8
0
10
251
20
-41.6645
40
1.5
50
90
51
180
0
ARC
8
0
10
248
20
-43.427
40
1.5
50
270
51
0
0
ARC
8
0
10
234
20
-46.427
40
1.5
50
90
51
180
0
ARC
8
0
10
178.5
20
-49.2845
40
1.5
50
90
51
180
0
ARC
8
0
10
178.5
20
-102.6826806
40
1.5
50
180
51
247.4763039
0
ARC
8
0
10
194.3868534
20
-112.5186633
40
1.5
50
19.9999981
51
67.4763039
0
ARC
8
0
10
202.2816313
20
-125.4379744
40
1.5
50
199.9999981
51
289.9999981
0
ARC
8
0
10
217.2901505
20
-123.1678534
40
1.5
50
100.8386271
51
109.9999981
0
ARC
8
0
10
235.8583521
20
-119.612804
40
1.5
50
90.8386281
51
100.8386271
0
ARC
8
0
10
253.36
20
-116.3562961
40
1.5
50
270.8386281
51
0
0
ARC
8
0
10
256.36
20
-97.5407282
40
1.5
50
90.2400643
51
180
0
ARC
8
0
10
282
20
-97.433298
40
1.5
50
0
51
90.2400643
0
ARC
8
0
10
285
20
-107
40
1.5
50
180
51
270
0
ARC
8
0
10
299
20
-107
40
1.5
50
270
51
0
0
LINE
8
0
10
130
20
-53.3945
11
130
21
-71.1745
0
LINE
8
0
10
130
20
-71.1745
11
163
21
-71.1745
0
LINE
8
0
10
163
20
-71.1745
11
163
21
-53.3945
0
LINE
8
0
10
163
20
-53.3945
11
130
21
-53.3945
0
LINE
8
0
10
212
20
-71.1745
11
212
21
-53.3945
0
LINE
8
0
10
212
20
-53.3945
11
179
21
-53.3945
0
LINE
8
0
10
179
20
-53.3945
11
179
21
-71.1745
0
LINE
8
0
10
179
20
-71.1745
11
212
21
-71.1745
0
LINE
8
0
10
157.5
20
-100.0645
11
157.5
21
-88.0645
0
LINE
8
0
10
157.5
20
-88.0645
11
127.5
21
-88.0645
0
LINE
8
0
10
127.5
20
-88.0645
11
127.5
21
-100.0645
0
LINE
8
0
10
127.5
20
-100.0645
11
157.5
21
-100.0645
0
LINE
8
0
10
184.5
20
-88.0645
11
184.5
21
-100.0645
0
LINE
8
0
10
184.5
20
-100.0645
11
214.5
21
-100.0645
0
LINE
8
0
10
214.5
20
-100.0645
11
214.5
21
-88.0645
0
LINE
8
0
10
214.5
20
-88.0645
11
184.5
21
-88.0645
0
LINE
8
0
10
152.12
20
-107.8745
11
152.12
21
-100.2545
0
LINE
8
0
10
152.12
20
-100.2545
11
136.88
21
-100.2545
0
LINE
8
0
10
136.88
20
-100.2545
11
136.88
21
-107.8745
0
LINE
8
0
10
136.88
20
-107.8745
11
152.12
21
-107.8745
0
LINE
8
0
10
189.88
20
-100.2545
11
189.88
21
-107.8745
0
LINE
8
0
10
189.88
20
-107.8745
11
205.12
21
-107.8745
0
LINE
8
0
10
205.12
20
-107.8745
11
205.12
21
-100.2545
0
LINE
8
0
10
205.12
20
-100.2545
11
189.88
21
-100.2545
0
LINE
8
0
10
131.5
20
-73.0645
11
131.5
21
-87.0645
0
LINE
8
0
10
131.5
20
-87.0645
11
161.5
21
-87.0645
0
LINE
8
0
10
161.5
20
-87.0645
11
161.5
21
-73.0645
0
LINE
8
0
10
161.5
20
-73.0645
11
131.5
21
-73.0645
0
LINE
8
0
10
210.5
20
-87.0645
11
210.5
21
-73.0645
0
LINE
8
0
10
210.5
20
-73.0645
11
180.5
21
-73.0645
0
LINE
8
0
10
180.5
20
-73.0645
11
180.5
21
-87.0645
0
LINE
8
0
10
180.5
20
-87.0645
11
210.5
21
-87.0645
0
LINE
8
0
10
149.15
20
-53.5945
11
151.85
21
-53.5945
0
LINE
8
0
10
151.85
20
-53.5945
11
151.85
21
-45.7945
0
LINE
8
0
10
151.85
20
-45.7945
11
149.15
21
-45.7945
0
LINE
8
0
10
149.15
20
-45.7945
11
149.15
21
-53.5945
0
LINE
8
0
10
190.15
20
-53.5945
11
192.85
21
-53.5945
0
LINE
8
0
10
192.85
20
-53.5945
11
192.85
21
-45.7945
0
LINE
8
0
10
192.85
20
-45.7945
11
190.15
21
-45.7945
0
LINE
8
0
10
190.15
20
-45.7945
11
190.15
21
-53.5945
0
LINE
8
0
10
136.25
20
-52.8945
11
140.75
21
-52.8945
0
LINE
8
0
10
140.75
20
-52.8945
11
140.75
21
-46.4945
0
LINE
8
0
10
140.75
20
-46.4945
11
136.25
21
-46.4945
0
LINE
8
0
10
136.25
20
-46.4945
11
136.25
21
-52.8945
0
LINE
8
0
10
201.25
20
-52.8945
11
205.75
21
-52.8945
0
LINE
8
0
10
205.75
20
-52.8945
11
205.75
21
-46.4945
0
LINE
8
0
10
205.75
20
-46.4945
11
201.25
21
-46.4945
0
LINE
8
0
10
201.25
20
-46.4945
11
201.25
21
-52.8945
0
ENDSEC
0
EOF