0
SECTION
2
HEADER
9
$INSUNITS
70
4
0
ENDSEC
0
SECTION
2
TABLES
0
TABLE
2
LTYPE
0
LTYPE
72
65
70
64
2
CONTINUOUS
3
______
73
0
40
0
0
ENDTAB
0
TABLE
2
LAYER
0
ENDTAB
0
ENDSEC
0
SECTION
2
ENTITIES
0
LINE
8
0
10
42
20
-108
11
58
21
-108
0
LINE
8
0
10
58
20
-108
11
58
21
-92
0
LINE
8
0
10
58
20
-92
11
42
21
-92
0
LINE
8
0
10
42
20
-92
11
42
21
-108
0
LINE
8
0
10
42
20
-91
11
58
21
-91
0
LINE
8
0
10
58
20
-91
11
58
21
-75
0
LINE
8
0
10
58
20
-75
11
42
21
-75
0
LINE
8
0
10
42
20
-75
11
42
21
-91
0
LINE
8
0
10
42
20
-74
11
58
21
-74
0
LINE
8
0
10
58
20
-74
11
58
21
-58
0
LINE
8
0
10
58
20
-58
11
42
21
-58
0
LINE
8
0
10
42
20
-58
11
42
21
-74
0
LINE
8
0
10
59
20
-95.427
11
75
21
-95.427
0
LINE
8
0
10
75
20
-95.427
11
75
21
-79.427
0
LINE
8
0
10
75
20
-79.427
11
59
21
-79.427
0
LINE
8
0
10
59
20
-79.427
11
59
21
-95.427
0
LINE
8
0
10
59
20
-78.427
11
75
21
-78.427
0
LINE
8
0
10
75
20
-78.427
11
75
21
-62.427
0
LINE
8
0
10
75
20
-62.427
11
59
21
-62.427
0
LINE
8
0
10
59
20
-62.427
11
59
21
-78.427
0
LINE
8
0
10
59
20
-61.427
11
75
21
-61.427
0
LINE
8
0
10
75
20
-61.427
11
75
21
-45.427
0
LINE
8
0
10
75
20
-45.427
11
59
21
-45.427
0
LINE
8
0
10
59
20
-45.427
11
59
21
-61.427
0
LINE
8
0
10
76
20
-90.6645
11
92
21
-90.6645
0
LINE
8
0
10
92
20
-90.6645
11
92
21
-74.6645
0
LINE
8
0
10
92
20
-74.6645
11
76
21
-74.6645
0
LINE
8
0
10
76
20
-74.6645
11
76
21
-90.6645
0
LINE
8
0
10
76
20
-73.6645
11
92
21
-73.6645
0
LINE
8
0
10
92
20
-73.6645
11
92
21
-57.6645
0
LINE
8
0
10
92
20
-57.6645
11
76
21
-57.6645
0
LINE
8
0
10
76
20
-57.6645
11
76
21
-73.6645
0
LINE
8
0
10
76
20
-56.6645
11
92
21
-56.6645
0
LINE
8
0
10
92
20
-56.6645
11
92
21
-40.6645
0
LINE
8
0
10
92
20
-40.6645
11
76
21
-40.6645
0
LINE
8
0
10
76
20
-40.6645
11
76
21
-56.6645
0
LINE
8
0
10
93
20
-95.427
11
109
21
-95.427
0
LINE
8
0
10
109
20
-95.427
11
109
21
-79.427
0
LINE
8
0
10
109
20
-79.427
11
93
21
-79.427
0
LINE
8
0
10
93
20
-79.427
11
93
21
-95.427
0
LINE
8
0
10
93
20
-78.427
11
109
21
-78.427
0
LINE
8
0
10
109
20
-78.427
11
109
21
-62.427
0
LINE
8
0
10
109
20
-62.427
11
93
21
-62.427
0
LINE
8
0
10
93
20
-62.427
11
93
21
-78.427
0
LINE
8
0
10
93
20
-61.427
11
109
21
-61.427
0
LINE
8
0
10
109
20
-61.427
11
109
21
-45.427
0
LINE
8
0
10
109
20
-45.427
11
93
21
-45.427
0
LINE
8
0
10
93
20
-45.427
11
93
21
-61.427
0
LINE
8
0
10
110
20
-98.2845
11
126
21
-98.2845
0
LINE
8
0
10
126
20
-98.2845
11
126
21
-82.2845
0
LINE
8
0
10
126
20
-82.2845
11
110
21
-82.2845
0
LINE
8
0
10
110
20
-82.2845
11
110
21
-98.2845
0
LINE
8
0
10
110
20
-81.2845
11
126
21
-81.2845
0
LINE
8
0
10
126
20
-81.2845
11
126
21
-65.2845
0
LINE
8
0
10
126
20
-65.2845
11
110
21
-65.2845
0
LINE
8
0
10
110
20
-65.2845
11
110
21
-81.2845
0
LINE
8
0
10
110
20
-64.2845
11
126
21
-64.2845
0
LINE
8
0
10
126
20
-64.2845
11
126
21
-48.2845
0
LINE
8
0
10
126
20
-48.2845
11
110
21
-48.2845
0
LINE
8
0
10
110
20
-48.2845
11
110
21
-64.2845
0
LINE
8
0
10
87.14
20
-119.2395
11
103.14
21
-119.2395
0
LINE
8
0
10
103.14
20
-119.2395
11
103.14
21
-103.2395
0
LINE
8
0
10
103.14
20
-103.2395
11
87.14
21
-103.2395
0
LINE
8
0
10
87.14
20
-103.2395
11
87.14
21
-119.2395
0
LINE
8
0
10
108.0356442
20
-119.6721878
11
123.7925682
21
-122.4505586
0
LINE
8
0
10
123.7925682
20
-122.4505586
11
126.570939
21
-106.6936346
0
LINE
8
0
10
126.570939
20
-106.6936346
11
110.814015
21
-103.9152638
0
LINE
8
0
10
110.814015
20
-103.9152638
11
108.0356442
21
-119.6721878
0
LINE
8
0
10
128.5387011
20
-123.7267926
11
143.573783
21
-129.1991149
0
LINE
8
0
10
143.573783
20
-129.1991149
11
149.0461053
21
-114.164033
0
LINE
8
0
10
149.0461053
20
-114.164033
11
134.0110234
21
-108.6917107
0
LINE
8
0
10
134.0110234
20
-108.6917107
11
128.5387011
21
-123.7267926
0
LINE
8
0
10
284
20
-108
11
300
21
-108
0
LINE
8
0
10
300
20
-108
11
300
21
-92
0
LINE
8
0
10
300
20
-92
11
284
21
-92
0
LINE
8
0
10
284
20
-92
11
284
21
-108
0
LINE
8
0
10
284
20
-91
11
300
21
-91
0
LINE
8
0
10
300
20
-91
11
300
21
-75
0
LINE
8
0
10
300
20
-75
11
284
21
-75
0
LINE
8
0
10
284
20
-75
11
284
21
-91
0
LINE
8
0
10
284
20
-74
11
300
21
-74
0
LINE
8
0
10
300
20
-74
11
300
21
-58
0
LINE
8
0
10
300
20
-58
11
284
21
-58
0
LINE
8
0
10
284
20
-58
11
284
21
-74
0
LINE
8
0
10
267
20
-95.427
11
283
21
-95.427
0
LINE
8
0
10
283
20
-95.427
11
283
21
-79.427
0
LINE
8
0
10
283
20
-79.427
11
267
21
-79.427
0
LINE
8
0
10
267
20
-79.427
11
267
21
-95.427
0
LINE
8
0
10
267
20
-78.427
11
283
21
-78.427
0
LINE
8
0
10
283
20
-78.427
11
283
21
-62.427
0
LINE
8
0
10
283
20
-62.427
11
267
21
-62.427
0
LINE
8
0
10
267
20
-62.427
11
267
21
-78.427
0
LINE
8
0
10
267
20
-61.427
11
283
21
-61.427
0
LINE
8
0
10
283
20
-61.427
11
283
21
-45.427
0
LINE
8
0
10
283
20
-45.427
11
267
21
-45.427
0
LINE
8
0
10
267
20
-45.427
11
267
21
-61.427
0
LINE
8
0
10
250
20
-90.6645
11
266
21
-90.6645
0
LINE
8
0
10
266
20
-90.6645
11
266
21
-74.6645
0
LINE
8
0
10
266
20
-74.6645
11
250
21
-74.6645
0
LINE
8
0
10
250
20
-74.6645
11
250
21
-90.6645
0
LINE
8
0
10
250
20
-73.6645
11
266
21
-73.6645
0
LINE
8
0
10
266
20
-73.6645
11
266
21
-57.6645
0
LINE
8
0
10
266
20
-57.6645
11
250
21
-57.6645
0
LINE
8
0
10
250
20
-57.6645
11
250
21
-73.6645
0
LINE
8
0
10
250
20
-56.6645
11
266
21
-56.6645
0
LINE
8
0
10
266
20
-56.6645
11
266
21
-40.6645
0
LINE
8
0
10
266
20
-40.6645
11
250
21
-40.6645
0
LINE
8
0
10
250
20
-40.6645
11
250
21
-56.6645
0
LINE
8
0
10
233
20
-95.427
11
249
21
-95.427
0
LINE
8
0
10
249
20
-95.427
11
249
21
-79.427
0
LINE
8
0
10
249
20
-79.427
11
233
21
-79.427
0
LINE
8
0
10
233
20
-79.427
11
233
21
-95.427
0
LINE
8
0
10
233
20
-78.427
11
249
21
-78.427
0
LINE
8
0
10
249
20
-78.427
11
249
21
-62.427
0
LINE
8
0
10
249
20
-62.427
11
233
21
-62.427
0
LINE
8
0
10
233
20
-62.427
11
233
21
-78.427
0
LINE
8
0
10
233
20
-61.427
11
249
21
-61.427
0
LINE
8
0
10
249
20
-61.427
11
249
21
-45.427
0
LINE
8
0
10
249
20
-45.427
11
233
21
-45.427
0
LINE
8
0
10
233
20
-45.427
11
233
21
-61.427
0
LINE
8
0
10
216
20
-98.2845
11
232
21
-98.2845
0
LINE
8
0
10
232
20
-98.2845
11
232
21
-82.2845
0
LINE
8
0
10
232
20
-82.2845
11
216
21
-82.2845
0
LINE
8
0
10
216
20
-82.2845
11
216
21
-98.2845
0
LINE
8
0
10
216
20
-81.2845
11
232
21
-81.2845
0
LINE
8
0
10
232
20
-81.2845
11
232
21
-65.2845
0
LINE
8
0
10
232
20
-65.2845
11
216
21
-65.2845
0
LINE
8
0
10
216
20
-65.2845
11
216
21
-81.2845
0
LINE
8
0
10
216
20
-64.2845
11
232
21
-64.2845
0
LINE
8
0
10
232
20
-64.2845
11
232
21
-48.2845
0
LINE
8
0
10
232
20
-48.2845
11
216
21
-48.2845
0
LINE
8
0
10
216
20
-48.2845
11
216
21
-64.2845
0
LINE
8
0
10
238.86
20
-119.2395
11
254.86
21
-119.2395
0
LINE
8
0
10
254.86
20
-119.2395
11
254.86
21
-103.2395
0
LINE
8
0
10
254.86
20
-103.2395
11
238.86
21
-103.2395
0
LINE
8
0
10
238.86
20
-103.2395
11
238.86
21
-119.2395
0
LINE
8
0
10
218.2074318
20
-122.4505586
11
233.9643558
21
-119.6721878
0
LINE
8
0
10
233.9643558
20
-119.6721878
11
231.185985
21
-103.9152638
0
LINE
8
0
10
231.185985
20
-103.9152638
11
215.429061
21
-106.6936346
0
LINE
8
0
10
215.429061
20
-106.6936346
11
218.2074318
21
-122.4505586
0
LINE
8
0
10
198.426217
20
-129.1991149
11
213.4612989
21
-123.7267926
0
LINE
8
0
10
213.4612989
20
-123.7267926
11
207.9889766
21
-108.6917107
0
LINE
8
0
10
207.9889766
20
-108.6917107
11
192.9538947
21
-114.164033
0
LINE
8
0
10
192.9538947
20
-114.164033
11
198.426217
21
-129.1991149
0
LINE
8
0
10
37.5
20
-111
11
37.5
21
-55
0
LINE
8
0
10
39
20
-53.5
11
53
21
-53.5
0
LINE
8
0
10
54.5
20
-52
11
54.5
21
-42.427
0
LINE
8
0
10
56
20
-40.927
11
70
21
-40.927
0
LINE
8
0
10
71.5
20
-39.427
11
71.5
21
-37.6645
0
LINE
8
0
10
73
20
-36.1645
11
95
21
-36.1645
0
LINE
8
0
10
96.5
20
-37.6645
11
96.5
21
-39.427
0
LINE
8
0
10
98
20
-40.927
11
112
21
-40.927
0
LINE
8
0
10
113.5
20
-42.427
11
113.5
21
-43.7845
0
LINE
8
0
10
113.5
20
-43.7845
11
163.5
21
-43.7845
0
LINE
8
0
10
165
20
-45.2845
11
165
21
-102.943274
0
LINE
8
0
10
164.4112172
20
-104.1347786
11
155.1621498
21
-111.2081119
0
LINE
8
0
10
154.6638281
20
-111.8865864
11
146.7763394
21
-133.5572834
0
LINE
8
0
10
144.8537703
20
-134.4537922
11
123.3757921
21
-126.6364474
0
LINE
8
0
10
123.0990202
20
-126.5647091
11
103.4445913
21
-123.4298999
0
LINE
8
0
10
103.1837809
20
-123.411378
11
84.6645522
21
-123.7145427
0
LINE
8
0
10
83.14
20
-122.2147436
11
83.14
21
-101.5383044
0
LINE
8
0
10
81.6487208
20
-100.0383298
11
64.0087208
21
-99.9357716
0
LINE
8
0
10
62.5
20
-101.4357462
11
62.5
21
-111
0
LINE
8
0
10
61
20
-112.5
11
39
21
-112.5
0
ARC
8
0
10
39
20
-55
40
1.5
50
90
51
180
0
ARC
8
0
10
53
20
-52
40
1.5
50
270
51
0
0
ARC
8
0
10
56
20
-42.427
40
1.5
50
90
51
180
0
ARC
8
0
10
70
20
-39.427
40
1.5
50
270
51
0
0
ARC
8
0
10
73
20
-37.6645
40
1.5
50
90
51
180
0
ARC
8
0
10
95
20
-37.6645
40
1.5
50
0
51
90
0
ARC
8
0
10
98
20
-39.427
40
1.5
50
180
51
270
0
ARC
8
0
10
112
20
-42.427
40
1.5
50
0
51
90
0
ARC
8
0
10
163.5
20
-45.2845
40
1.5
50
0
51
90
0
ARC
8
0
10
163.5
20
-102.943274
40
1.5
50
307.4073766
51
0
0
ARC
8
0
10
156.073367
20
-112.3996166
40
1.5
50
127.4073766
51
160.0000019
0
ARC
8
0
10
145.3668005
20
-133.0442533
40
1.5
50
250.0000019
51
340.0000019
0
ARC
8
0
10
122.862762
20
-128.0459863
40
1.5
50
70.0000019
51
80.9378638
0
ARC
8
0
10
103.208333
20
-124.9111771
40
1.5
50
80.9378638
51
90.937865
0
ARC
8
0
10
84.64
20
-122.2147436
40
1.5
50
180
51
270.937865
0
ARC
8
0
10
81.64
20
-101.5383044
40
1.5
50
0
51
89.6668862
0
ARC
8
0
10
64
20
-101.4357462
40
1.5
50
89.6668862
51
180
0
ARC
8
0
10
61
20
-111
40
1.5
50
270
51
0
0
ARC
8
0
10
39
20
-111
40
1.5
50
180
51
270
0
LINE
8
0
10
304.5
20
-111
11
304.5
21
-55
0
LINE
8
0
10
303
20
-53.5
11
289
21
-53.5
0
LINE
8
0
10
287.5
20
-52
11
287.5
21
-42.427
0
LINE
8
0
10
286
20
-40.927
11
272
21
-40.927
0
LINE
8
0
10
270.5
20
-39.427
11
270.5
21
-37.6645
0
LINE
8
0
10
269
20
-36.1645
11
247
21
-36.1645
0
LINE
8
0
10
245.5
20
-37.6645
11
245.5
21
-39.427
0
LINE
8
0
10
244
20
-40.927
11
230
21
-40.927
0
LINE
8
0
10
228.5
20
-42.427
11
228.5
21
-43.7845
0
LINE
8
0
10
178.5
20
-43.7845
11
228.5
21
-43.7845
0
LINE
8
0
10
177
20
-45.2845
11
177
21
-102.943274
0
LINE
8
0
10
177.5887828
20
-104.1347786
11
186.8378502
21
-111.2081119
0
LINE
8
0
10
187.3361719
20
-111.8865864
11
195.2236606
21
-133.5572834
0
LINE
8
0
10
197.1462297
20
-134.4537922
11
218.6242079
21
-126.6364474
0
LINE
8
0
10
218.9009798
20
-126.5647091
11
238.5554087
21
-123.4298999
0
LINE
8
0
10
238.8162191
20
-123.411378
11
257.3354478
21
-123.7145427
0
LINE
8
0
10
258.86
20
-122.2147436
11
258.86
21
-101.5383044
0
LINE
8
0
10
260.3512792
20
-100.0383298
11
277.9912792
21
-99.9357716
0
LINE
8
0
10
279.5
20
-101.4357462
11
279.5
21
-111
0
LINE
8
0
10
281
20
-112.5
11
303
21
-112.5
0
ARC
8
0
10
303
20
-55
40
1.5
50
0
51
90
0
ARC
8
0
10
289
20
-52
40
1.5
50
180
51
270
0
ARC
8
0
10
286
20
-42.427
40
1.5
50
0
51
90
0
ARC
8
0
10
272
20
-39.427
40
1.5
50
180
51
270
0
ARC
8
0
10
269
20
-37.6645
40
1.5
50
0
51
90
0
ARC
8
0
10
247
20
-37.6645
40
1.5
50
90
51
180
0
ARC
8
0
10
244
20
-39.427
40
1.5
50
270
51
0
0
ARC
8
0
10
230
20
-42.427
40
1.5
50
90
51
180
0
ARC
8
0
10
178.5
20
-45.2845
40
1.5
50
90
51
180
0
ARC
8
0
10
178.5
20
-102.943274
40
1.5
50
180
51
232.5926234
0
ARC
8
0
10
185.926633
20
-112.3996166
40
1.5
50
19.9999981
51
52.5926234
0
ARC
8
0
10
196.6331995
20
-133.0442533
40
1.5
50
199.9999981
51
289.9999981
0
ARC
8
0
10
219.137238
20
-128.0459863
40
1.5
50
99.0621362
51
109.9999981
0
ARC
8
0
10
238.791667
20
-124.9111771
40
1.5
50
89.062135
51
99.0621362
0
ARC
8
0
10
257.36
20
-122.2147436
40
1.5
50
269.062135
51
0
0
ARC
8
0
10
260.36
20
-101.5383044
40
1.5
50
90.3331138
51
180
0
ARC
8
0
10
278
20
-101.4357462
40
1.5
50
0
51
90.3331138
0
ARC
8
0
10
281
20
-111
40
1.5
50
180
51
270
0
ARC
8
0
10
303
20
-111
40
1.5
50
270
51
0
0
LINE
8
0
10
130
20
-49.3945
11
130
21
-67.1745
0
LINE
8
0
10
130
20
-67.1745
11
163
21
-67.1745
0
LINE
8
0
10
163
20
-67.1745
11
163
21
-49.3945
0
LINE
8
0
10
163
20
-49.3945
11
130
21
-49.3945
0
LINE
8
0
10
212
20
-67.1745
11
212
21
-49.3945
0
LINE
8
0
10
212
20
-49.3945
11
179
21
-49.3945
0
LINE
8
0
10
179
20
-49.3945
11
179
21
-67.1745
0
LINE
8
0
10
179
20
-67.1745
11
212
21
-67.1745
0
LINE
8
0
10
157.5
20
-96.0645
11
157.5
21
-84.0645
0
LINE
8
0
10
157.5
20
-84.0645
11
127.5
21
-84.0645
0
LINE
8
0
10
127.5
20
-84.0645
11
127.5
21
-96.0645
0
LINE
8
0
10
127.5
20
-96.0645
11
157.5
21
-96.0645
0
LINE
8
0
10
184.5
20
-84.0645
11
184.5
21
-96.0645
0
LINE
8
0
10
184.5
20
-96.0645
11
214.5
21
-96.0645
0
LINE
8
0
10
214.5
20
-96.0645
11
214.5
21
-84.0645
0
LINE
8
0
10
214.5
20
-84.0645
11
184.5
21
-84.0645
0
LINE
8
0
10
152.12
20
-105.8745
11
152.12
21
-98.2545
0
LINE
8
0
10
152.12
20
-98.2545
11
136.88
21
-98.2545
0
LINE
8
0
10
136.88
20
-98.2545
11
136.88
21
-105.8745
0
LINE
8
0
10
136.88
20
-105.8745
11
152.12
21
-105.8745
0
LINE
8
0
10
189.88
20
-98.2545
11
189.88
21
-105.8745
0
LINE
8
0
10
189.88
20
-105.8745
11
205.12
21
-105.8745
0
LINE
8
0
10
205.12
20
-105.8745
11
205.12
21
-98.2545
0
LINE
8
0
10
205.12
20
-98.2545
11
189.88
21
-98.2545
0
LINE
8
0
10
131.5
20
-69.0645
11
131.5
21
-83.0645
0
LINE
8
0
10
131.5
20
-83.0645
11
161.5
21
-83.0645
0
LINE
8
0
10
161.5
20
-83.0645
11
161.5
21
-69.0645
0
LINE
8
0
10
161.5
20
-69.0645
11
131.5
21
-69.0645
0
LINE
8
0
10
210.5
20
-83.0645
11
210.5
21
-69.0645
0
LINE
8
0
10
210.5
20
-69.0645
11
180.5
21
-69.0645
0
LINE
8
0
10
180.5
20
-69.0645
11
180.5
21
-83.0645
0
LINE
8
0
10
180.5
20
-83.0645
11
210.5
21
-83.0645
0
LINE
8
0
10
149.15
20
-49.2945
11
151.85
21
-49.2945
0
LINE
8
0
10
151.85
20
-49.2945
11
151.85
21
-41.4945
0
LINE
8
0
10
151.85
20
-41.4945
11
149.15
21
-41.4945
0
LINE
8
0
10
149.15
20
-41.4945
11
149.15
21
-49.2945
0
LINE
8
0
10
190.15
20
-49.2945
11
192.85
21
-49.2945
0
LINE
8
0
10
192.85
20
-49.2945
11
192.85
21
-41.4945
0
LINE
8
0
10
192.85
20
-41.4945
11
190.15
21
-41.4945
0
LINE
8
0
10
190.15
20
-41.4945
11
190.15
21
-49.2945
0
LINE
8
0
10
134.25
20
-48.5945
11
138.75
21
-48.5945
0
LINE
8
0
10
138.75
20
-48.5945
11
138.75
21
-42.1945
0
LINE
8
0
10
138.75
20
-42.1945
11
134.25
21
-42.1945
0
LINE
8
0
10
134.25
20
-42.1945
11
134.25
21
-48.5945
0
LINE
8
0
10
203.25
20
-48.5945
11
207.75
21
-48.5945
0
LINE
8
0
10
207.75
20
-48.5945
11
207.75
21
-42.1945
0
LINE
8
0
10
207.75
20
-42.1945
11
203.25
21
-42.1945
0
LINE
8
0
10
203.25
20
-42.1945
11
203.25
21
-48.5945
0
ENDSEC
0
EOF