0
SECTION
2
HEADER
9
$INSUNITS
70
4
0
ENDSEC
0
SECTION
2
TABLES
0
TABLE
2
LTYPE
0
LTYPE
72
65
70
64
2
CONTINUOUS
3
______
73
0
40
0
0
ENDTAB
0
TABLE
2
LAYER
0
ENDTAB
0
ENDSEC
0
SECTION
2
ENTITIES
0
LINE
8
0
10
42
20
-108
11
58
21
-108
0
LINE
8
0
10
58
20
-108
11
58
21
-92
0
LINE
8
0
10
58
20
-92
11
42
21
-92
0
LINE
8
0
10
42
20
-92
11
42
21
-108
0
LINE
8
0
10
42
20
-91
11
58
21
-91
0
LINE
8
0
10
58
20
-91
11
58
21
-75
0
LINE
8
0
10
58
20
-75
11
42
21
-75
0
LINE
8
0
10
42
20
-75
11
42
21
-91
0
LINE
8
0
10
42
20
-74
11
58
21
-74
0
LINE
8
0
10
58
20
-74
11
58
21
-58
0
LINE
8
0
10
58
20
-58
11
42
21
-58
0
LINE
8
0
10
42
20
-58
11
42
21
-74
0
LINE
8
0
10
59
20
-95.427
11
75
21
-95.427
0
LINE
8
0
10
75
20
-95.427
11
75
21
-79.427
0
LINE
8
0
10
75
20
-79.427
11
59
21
-79.427
0
LINE
8
0
10
59
20
-79.427
11
59
21
-95.427
0
LINE
8
0
10
59
20
-78.427
11
75
21
-78.427
0
LINE
8
0
10
75
20
-78.427
11
75
21
-62.427
0
LINE
8
0
10
75
20
-62.427
11
59
21
-62.427
0
LINE
8
0
10
59
20
-62.427
11
59
21
-78.427
0
LINE
8
0
10
59
20
-61.427
11
75
21
-61.427
0
LINE
8
0
10
75
20
-61.427
11
75
21
-45.427
0
LINE
8
0
10
75
20
-45.427
11
59
21
-45.427
0
LINE
8
0
10
59
20
-45.427
11
59
21
-61.427
0
LINE
8
0
10
76
20
-90.6645
11
92
21
-90.6645
0
LINE
8
0
10
92
20
-90.6645
11
92
21
-74.6645
0
LINE
8
0
10
92
20
-74.6645
11
76
21
-74.6645
0
LINE
8
0
10
76
20
-74.6645
11
76
21
-90.6645
0
LINE
8
0
10
76
20
-73.6645
11
92
21
-73.6645
0
LINE
8
0
10
92
20
-73.6645
11
92
21
-57.6645
0
LINE
8
0
10
92
20
-57.6645
11
76
21
-57.6645
0
LINE
8
0
10
76
20
-57.6645
11
76
21
-73.6645
0
LINE
8
0
10
76
20
-56.6645
11
92
21
-56.6645
0
LINE
8
0
10
92
20
-56.6645
11
92
21
-40.6645
0
LINE
8
0
10
92
20
-40.6645
11
76
21
-40.6645
0
LINE
8
0
10
76
20
-40.6645
11
76
21
-56.6645
0
LINE
8
0
10
93
20
-95.427
11
109
21
-95.427
0
LINE
8
0
10
109
20
-95.427
11
109
21
-79.427
0
LINE
8
0
10
109
20
-79.427
11
93
21
-79.427
0
LINE
8
0
10
93
20
-79.427
11
93
21
-95.427
0
LINE
8
0
10
93
20
-78.427
11
109
21
-78.427
0
LINE
8
0
10
109
20
-78.427
11
109
21
-62.427
0
LINE
8
0
10
109
20
-62.427
11
93
21
-62.427
0
LINE
8
0
10
93
20
-62.427
11
93
21
-78.427
0
LINE
8
0
10
93
20
-61.427
11
109
21
-61.427
0
LINE
8
0
10
109
20
-61.427
11
109
21
-45.427
0
LINE
8
0
10
109
20
-45.427
11
93
21
-45.427
0
LINE
8
0
10
93
20
-45.427
11
93
21
-61.427
0
LINE
8
0
10
110
20
-98.2845
11
126
21
-98.2845
0
LINE
8
0
10
126
20
-98.2845
11
126
21
-82.2845
0
LINE
8
0
10
126
20
-82.2845
11
110
21
-82.2845
0
LINE
8
0
10
110
20
-82.2845
11
110
21
-98.2845
0
LINE
8
0
10
110
20
-81.2845
11
126
21
-81.2845
0
LINE
8
0
10
126
20
-81.2845
11
126
21
-65.2845
0
LINE
8
0
10
126
20
-65.2845
11
110
21
-65.2845
0
LINE
8
0
10
110
20
-65.2845
11
110
21
-81.2845
0
LINE
8
0
10
110
20
-64.2845
11
126
21
-64.2845
0
LINE
8
0
10
126
20
-64.2845
11
126
21
-48.2845
0
LINE
8
0
10
126
20
-48.2845
11
110
21
-48.2845
0
LINE
8
0
10
110
20
-48.2845
11
110
21
-64.2845
0
LINE
8
0
10
87.14
20
-117.3345
11
103.14
21
-117.3345
0
LINE
8
0
10
103.14
20
-117.3345
11
103.14
21
-101.3345
0
LINE
8
0
10
103.14
20
-101.3345
11
87.14
21
-101.3345
0
LINE
8
0
10
87.14
20
-101.3345
11
87.14
21
-117.3345
0
LINE
8
0
10
106.3816453
20
-117.6224816
11
122.1385693
21
-120.4008524
0
LINE
8
0
10
122.1385693
20
-120.4008524
11
124.9169401
21
-104.6439284
0
LINE
8
0
10
124.9169401
20
-104.6439284
11
109.1600161
21
-101.8655576
0
LINE
8
0
10
109.1600161
20
-101.8655576
11
106.3816453
21
-117.6224816
0
LINE
8
0
10
125.2809592
20
-121.2473648
11
140.3160411
21
-126.7196871
0
LINE
8
0
10
140.3160411
20
-126.7196871
11
145.7883634
21
-111.6846052
0
LINE
8
0
10
145.7883634
20
-111.6846052
11
130.7532815
21
-106.2122829
0
LINE
8
0
10
130.7532815
20
-106.2122829
11
125.2809592
21
-121.2473648
0
LINE
8
0
10
284
20
-108
11
300
21
-108
0
LINE
8
0
10
300
20
-108
11
300
21
-92
0
LINE
8
0
10
300
20
-92
11
284
21
-92
0
LINE
8
0
10
284
20
-92
11
284
21
-108
0
LINE
8
0
10
284
20
-91
11
300
21
-91
0
LINE
8
0
10
300
20
-91
11
300
21
-75
0
LINE
8
0
10
300
20
-75
11
284
21
-75
0
LINE
8
0
10
284
20
-75
11
284
21
-91
0
LINE
8
0
10
284
20
-74
11
300
21
-74
0
LINE
8
0
10
300
20
-74
11
300
21
-58
0
LINE
8
0
10
300
20
-58
11
284
21
-58
0
LINE
8
0
10
284
20
-58
11
284
21
-74
0
LINE
8
0
10
267
20
-95.427
11
283
21
-95.427
0
LINE
8
0
10
283
20
-95.427
11
283
21
-79.427
0
LINE
8
0
10
283
20
-79.427
11
267
21
-79.427
0
LINE
8
0
10
267
20
-79.427
11
267
21
-95.427
0
LINE
8
0
10
267
20
-78.427
11
283
21
-78.427
0
LINE
8
0
10
283
20
-78.427
11
283
21
-62.427
0
LINE
8
0
10
283
20
-62.427
11
267
21
-62.427
0
LINE
8
0
10
267
20
-62.427
11
267
21
-78.427
0
LINE
8
0
10
267
20
-61.427
11
283
21
-61.427
0
LINE
8
0
10
283
20
-61.427
11
283
21
-45.427
0
LINE
8
0
10
283
20
-45.427
11
267
21
-45.427
0
LINE
8
0
10
267
20
-45.427
11
267
21
-61.427
0
LINE
8
0
10
250
20
-90.6645
11
266
21
-90.6645
0
LINE
8
0
10
266
20
-90.6645
11
266
21
-74.6645
0
LINE
8
0
10
266
20
-74.6645
11
250
21
-74.6645
0
LINE
8
0
10
250
20
-74.6645
11
250
21
-90.6645
0
LINE
8
0
10
250
20
-73.6645
11
266
21
-73.6645
0
LINE
8
0
10
266
20
-73.6645
11
266
21
-57.6645
0
LINE
8
0
10
266
20
-57.6645
11
250
21
-57.6645
0
LINE
8
0
10
250
20
-57.6645
11
250
21
-73.6645
0
LINE
8
0
10
250
20
-56.6645
11
266
21
-56.6645
0
LINE
8
0
10
266
20
-56.6645
11
266
21
-40.6645
0
LINE
8
0
10
266
20
-40.6645
11
250
21
-40.6645
0
LINE
8
0
10
250
20
-40.6645
11
250
21
-56.6645
0
LINE
8
0
10
233
20
-95.427
11
249
21
-95.427
0
LINE
8
0
10
249
20
-95.427
11
249
21
-79.427
0
LINE
8
0
10
249
20
-79.427
11
233
21
-79.427
0
LINE
8
0
10
233
20
-79.427
11
233
21
-95.427
0
LINE
8
0
10
233
20
-78.427
11
249
21
-78.427
0
LINE
8
0
10
249
20
-78.427
11
249
21
-62.427
0
LINE
8
0
10
249
20
-62.427
11
233
21
-62.427
0
LINE
8
0
10
233
20
-62.427
11
233
21
-78.427
0
LINE
8
0
10
233
20
-61.427
11
249
21
-61.427
0
LINE
8
0
10
249
20
-61.427
11
249
21
-45.427
0
LINE
8
0
10
249
20
-45.427
11
233
21
-45.427
0
LINE
8
0
10
233
20
-45.427
11
233
21
-61.427
0
LINE
8
0
10
216
20
-98.2845
11
232
21
-98.2845
0
LINE
8
0
10
232
20
-98.2845
11
232
21
-82.2845
0
LINE
8
0
10
232
20
-82.2845
11
216
21
-82.2845
0
LINE
8
0
10
216
20
-82.2845
11
216
21
-98.2845
0
LINE
8
0
10
216
20
-81.2845
11
232
21
-81.2845
0
LINE
8
0
10
232
20
-81.2845
11
232
21
-65.2845
0
LINE
8
0
10
232
20
-65.2845
11
216
21
-65.2845
0
LINE
8
0
10
216
20
-65.2845
11
216
21
-81.2845
0
LINE
8
0
10
216
20
-64.2845
11
232
21
-64.2845
0
LINE
8
0
10
232
20
-64.2845
11
232
21
-48.2845
0
LINE
8
0
10
232
20
-48.2845
11
216
21
-48.2845
0
LINE
8
0
10
216
20
-48.2845
11
216
21
-64.2845
0
LINE
8
0
10
238.86
20
-117.3345
11
254.86
21
-117.3345
0
LINE
8
0
10
254.86
20
-117.3345
11
254.86
21
-101.3345
0
LINE
8
0
10
254.86
20
-101.3345
11
238.86
21
-101.3345
0
LINE
8
0
10
238.86
20
-101.3345
11
238.86
21
-117.3345
0
LINE
8
0
10
219.8614307
20
-120.4008524
11
235.6183547
21
-117.6224816
0
LINE
8
0
10
235.6183547
20
-117.6224816
11
232.8399839
21
-101.8655576
0
LINE
8
0
10
232.8399839
20
-101.8655576
11
217.0830599
21
-104.6439284
0
LINE
8
0
10
217.0830599
20
-104.6439284
11
219.8614307
21
-120.4008524
0
LINE
8
0
10
201.6839589
20
-126.7196871
11
216.7190408
21
-121.2473648
0
LINE
8
0
10
216.7190408
20
-121.2473648
11
211.2467185
21
-106.2122829
0
LINE
8
0
10
211.2467185
20
-106.2122829
11
196.2116366
21
-111.6846052
0
LINE
8
0
10
196.2116366
20
-111.6846052
11
201.6839589
21
-126.7196871
0
ENDSEC
0
EOF