0
SECTION
2
HEADER
9
$INSUNITS
70
4
0
ENDSEC
0
SECTION
2
TABLES
0
TABLE
2
LTYPE
0
LTYPE
72
65
70
64
2
CONTINUOUS
3
______
73
0
40
0
0
ENDTAB
0
TABLE
2
LAYER
0
ENDTAB
0
ENDSEC
0
SECTION
2
ENTITIES
0
LINE
8
0
10
42
20
-108
11
58
21
-108
0
LINE
8
0
10
58
20
-108
11
58
21
-92
0
LINE
8
0
10
58
20
-92
11
42
21
-92
0
LINE
8
0
10
42
20
-92
11
42
21
-108
0
LINE
8
0
10
42
20
-91
11
58
21
-91
0
LINE
8
0
10
58
20
-91
11
58
21
-75
0
LINE
8
0
10
58
20
-75
11
42
21
-75
0
LINE
8
0
10
42
20
-75
11
42
21
-91
0
LINE
8
0
10
42
20
-74
11
58
21
-74
0
LINE
8
0
10
58
20
-74
11
58
21
-58
0
LINE
8
0
10
58
20
-58
11
42
21
-58
0
LINE
8
0
10
42
20
-58
11
42
21
-74
0
LINE
8
0
10
59
20
-95.427
11
75
21
-95.427
0
LINE
8
0
10
75
20
-95.427
11
75
21
-79.427
0
LINE
8
0
10
75
20
-79.427
11
59
21
-79.427
0
LINE
8
0
10
59
20
-79.427
11
59
21
-95.427
0
LINE
8
0
10
59
20
-78.427
11
75
21
-78.427
0
LINE
8
0
10
75
20
-78.427
11
75
21
-62.427
0
LINE
8
0
10
75
20
-62.427
11
59
21
-62.427
0
LINE
8
0
10
59
20
-62.427
11
59
21
-78.427
0
LINE
8
0
10
59
20
-61.427
11
75
21
-61.427
0
LINE
8
0
10
75
20
-61.427
11
75
21
-45.427
0
LINE
8
0
10
75
20
-45.427
11
59
21
-45.427
0
LINE
8
0
10
59
20
-45.427
11
59
21
-61.427
0
LINE
8
0
10
76
20
-90.6645
11
92
21
-90.6645
0
LINE
8
0
10
92
20
-90.6645
11
92
21
-74.6645
0
LINE
8
0
10
92
20
-74.6645
11
76
21
-74.6645
0
LINE
8
0
10
76
20
-74.6645
11
76
21
-90.6645
0
LINE
8
0
10
76
20
-73.6645
11
92
21
-73.6645
0
LINE
8
0
10
92
20
-73.6645
11
92
21
-57.6645
0
LINE
8
0
10
92
20
-57.6645
11
76
21
-57.6645
0
LINE
8
0
10
76
20
-57.6645
11
76
21
-73.6645
0
LINE
8
0
10
76
20
-56.6645
11
92
21
-56.6645
0
LINE
8
0
10
92
20
-56.6645
11
92
21
-40.6645
0
LINE
8
0
10
92
20
-40.6645
11
76
21
-40.6645
0
LINE
8
0
10
76
20
-40.6645
11
76
21
-56.6645
0
LINE
8
0
10
93
20
-95.427
11
109
21
-95.427
0
LINE
8
0
10
109
20
-95.427
11
109
21
-79.427
0
LINE
8
0
10
109
20
-79.427
11
93
21
-79.427
0
LINE
8
0
10
93
20
-79.427
11
93
21
-95.427
0
LINE
8
0
10
93
20
-78.427
11
109
21
-78.427
0
LINE
8
0
10
109
20
-78.427
11
109
21
-62.427
0
LINE
8
0
10
109
20
-62.427
11
93
21
-62.427
0
LINE
8
0
10
93
20
-62.427
11
93
21
-78.427
0
LINE
8
0
10
93
20
-61.427
11
109
21
-61.427
0
LINE
8
0
10
109
20
-61.427
11
109
21
-45.427
0
LINE
8
0
10
109
20
-45.427
11
93
21
-45.427
0
LINE
8
0
10
93
20
-45.427
11
93
21
-61.427
0
LINE
8
0
10
110
20
-98.2845
11
126
21
-98.2845
0
LINE
8
0
10
126
20
-98.2845
11
126
21
-82.2845
0
LINE
8
0
10
126
20
-82.2845
11
110
21
-82.2845
0
LINE
8
0
10
110
20
-82.2845
11
110
21
-98.2845
0
LINE
8
0
10
110
20
-81.2845
11
126
21
-81.2845
0
LINE
8
0
10
126
20
-81.2845
11
126
21
-65.2845
0
LINE
8
0
10
126
20
-65.2845
11
110
21
-65.2845
0
LINE
8
0
10
110
20
-65.2845
11
110
21
-81.2845
0
LINE
8
0
10
110
20
-64.2845
11
126
21
-64.2845
0
LINE
8
0
10
126
20
-64.2845
11
126
21
-48.2845
0
LINE
8
0
10
126
20
-48.2845
11
110
21
-48.2845
0
LINE
8
0
10
110
20
-48.2845
11
110
21
-64.2845
0
LINE
8
0
10
87.14
20
-119.2395
11
103.14
21
-119.2395
0
LINE
8
0
10
103.14
20
-119.2395
11
103.14
21
-103.2395
0
LINE
8
0
10
103.14
20
-103.2395
11
87.14
21
-103.2395
0
LINE
8
0
10
87.14
20
-103.2395
11
87.14
21
-119.2395
0
LINE
8
0
10
108.0356442
20
-119.6721878
11
123.7925682
21
-122.4505586
0
LINE
8
0
10
123.7925682
20
-122.4505586
11
126.570939
21
-106.6936346
0
LINE
8
0
10
126.570939
20
-106.6936346
11
110.814015
21
-103.9152638
0
LINE
8
0
10
110.814015
20
-103.9152638
11
108.0356442
21
-119.6721878
0
LINE
8
0
10
128.5387011
20
-123.7267926
11
143.573783
21
-129.1991149
0
LINE
8
0
10
143.573783
20
-129.1991149
11
149.0461053
21
-114.164033
0
LINE
8
0
10
149.0461053
20
-114.164033
11
134.0110234
21
-108.6917107
0
LINE
8
0
10
134.0110234
20
-108.6917107
11
128.5387011
21
-123.7267926
0
LINE
8
0
10
284
20
-108
11
300
21
-108
0
LINE
8
0
10
300
20
-108
11
300
21
-92
0
LINE
8
0
10
300
20
-92
11
284
21
-92
0
LINE
8
0
10
284
20
-92
11
284
21
-108
0
LINE
8
0
10
284
20
-91
11
300
21
-91
0
LINE
8
0
10
300
20
-91
11
300
21
-75
0
LINE
8
0
10
300
20
-75
11
284
21
-75
0
LINE
8
0
10
284
20
-75
11
284
21
-91
0
LINE
8
0
10
284
20
-74
11
300
21
-74
0
LINE
8
0
10
300
20
-74
11
300
21
-58
0
LINE
8
0
10
300
20
-58
11
284
21
-58
0
LINE
8
0
10
284
20
-58
11
284
21
-74
0
LINE
8
0
10
267
20
-95.427
11
283
21
-95.427
0
LINE
8
0
10
283
20
-95.427
11
283
21
-79.427
0
LINE
8
0
10
283
20
-79.427
11
267
21
-79.427
0
LINE
8
0
10
267
20
-79.427
11
267
21
-95.427
0
LINE
8
0
10
267
20
-78.427
11
283
21
-78.427
0
LINE
8
0
10
283
20
-78.427
11
283
21
-62.427
0
LINE
8
0
10
283
20
-62.427
11
267
21
-62.427
0
LINE
8
0
10
267
20
-62.427
11
267
21
-78.427
0
LINE
8
0
10
267
20
-61.427
11
283
21
-61.427
0
LINE
8
0
10
283
20
-61.427
11
283
21
-45.427
0
LINE
8
0
10
283
20
-45.427
11
267
21
-45.427
0
LINE
8
0
10
267
20
-45.427
11
267
21
-61.427
0
LINE
8
0
10
250
20
-90.6645
11
266
21
-90.6645
0
LINE
8
0
10
266
20
-90.6645
11
266
21
-74.6645
0
LINE
8
0
10
266
20
-74.6645
11
250
21
-74.6645
0
LINE
8
0
10
250
20
-74.6645
11
250
21
-90.6645
0
LINE
8
0
10
250
20
-73.6645
11
266
21
-73.6645
0
LINE
8
0
10
266
20
-73.6645
11
266
21
-57.6645
0
LINE
8
0
10
266
20
-57.6645
11
250
21
-57.6645
0
LINE
8
0
10
250
20
-57.6645
11
250
21
-73.6645
0
LINE
8
0
10
250
20
-56.6645
11
266
21
-56.6645
0
LINE
8
0
10
266
20
-56.6645
11
266
21
-40.6645
0
LINE
8
0
10
266
20
-40.6645
11
250
21
-40.6645
0
LINE
8
0
10
250
20
-40.6645
11
250
21
-56.6645
0
LINE
8
0
10
233
20
-95.427
11
249
21
-95.427
0
LINE
8
0
10
249
20
-95.427
11
249
21
-79.427
0
LINE
8
0
10
249
20
-79.427
11
233
21
-79.427
0
LINE
8
0
10
233
20
-79.427
11
233
21
-95.427
0
LINE
8
0
10
233
20
-78.427
11
249
21
-78.427
0
LINE
8
0
10
249
20
-78.427
11
249
21
-62.427
0
LINE
8
0
10
249
20
-62.427
11
233
21
-62.427
0
LINE
8
0
10
233
20
-62.427
11
233
21
-78.427
0
LINE
8
0
10
233
20
-61.427
11
249
21
-61.427
0
LINE
8
0
10
249
20
-61.427
11
249
21
-45.427
0
LINE
8
0
10
249
20
-45.427
11
233
21
-45.427
0
LINE
8
0
10
233
20
-45.427
11
233
21
-61.427
0
LINE
8
0
10
216
20
-98.2845
11
232
21
-98.2845
0
LINE
8
0
10
232
20
-98.2845
11
232
21
-82.2845
0
LINE
8
0
10
232
20
-82.2845
11
216
21
-82.2845
0
LINE
8
0
10
216
20
-82.2845
11
216
21
-98.2845
0
LINE
8
0
10
216
20
-81.2845
11
232
21
-81.2845
0
LINE
8
0
10
232
20
-81.2845
11
232
21
-65.2845
0
LINE
8
0
10
232
20
-65.2845
11
216
21
-65.2845
0
LINE
8
0
10
216
20
-65.2845
11
216
21
-81.2845
0
LINE
8
0
10
216
20
-64.2845
11
232
21
-64.2845
0
LINE
8
0
10
232
20
-64.2845
11
232
21
-48.2845
0
LINE
8
0
10
232
20
-48.2845
11
216
21
-48.2845
0
LINE
8
0
10
216
20
-48.2845
11
216
21
-64.2845
0
LINE
8
0
10
238.86
20
-119.2395
11
254.86
21
-119.2395
0
LINE
8
0
10
254.86
20
-119.2395
11
254.86
21
-103.2395
0
LINE
8
0
10
254.86
20
-103.2395
11
238.86
21
-103.2395
0
LINE
8
0
10
238.86
20
-103.2395
11
238.86
21
-119.2395
0
LINE
8
0
10
218.2074318
20
-122.4505586
11
233.9643558
21
-119.6721878
0
LINE
8
0
10
233.9643558
20
-119.6721878
11
231.185985
21
-103.9152638
0
LINE
8
0
10
231.185985
20
-103.9152638
11
215.429061
21
-106.6936346
0
LINE
8
0
10
215.429061
20
-106.6936346
11
218.2074318
21
-122.4505586
0
LINE
8
0
10
198.426217
20
-129.1991149
11
213.4612989
21
-123.7267926
0
LINE
8
0
10
213.4612989
20
-123.7267926
11
207.9889766
21
-108.6917107
0
LINE
8
0
10
207.9889766
20
-108.6917107
11
192.9538947
21
-114.164033
0
LINE
8
0
10
192.9538947
20
-114.164033
11
198.426217
21
-129.1991149
0
ENDSEC
0
EOF