%TF.GenerationSoftware,KiCad,Pcbnew,9.0.0*%
%TF.CreationDate,2025-03-16T15:31:19+09:00*%
%TF.ProjectId,left_pcb,6c656674-5f70-4636-922e-6b696361645f,0.0.1*%
%TF.SameCoordinates,Original*%
%TF.FileFunction,Soldermask,Top*%
%TF.FilePolarity,Negative*%
%FSLAX46Y46*%
G04 Gerber Fmt 4.6, Leading zero omitted, Abs format (unit mm)*
G04 Created by KiCad (PCBNEW 9.0.0) date 2025-03-16 15:31:19*
%MOMM*%
%LPD*%
G01*
G04 APERTURE LIST*
G04 Aperture macros list*
%AMRoundRect*
0 Rectangle with rounded corners*
0 $1 Rounding radius*
0 $2 $3 $4 $5 $6 $7 $8 $9 X,Y pos of 4 corners*
0 Add a 4 corners polygon primitive as box body*
4,1,4,$2,$3,$4,$5,$6,$7,$8,$9,$2,$3,0*
0 Add four circle primitives for the rounded corners*
1,1,$1+$1,$2,$3*
1,1,$1+$1,$4,$5*
1,1,$1+$1,$6,$7*
1,1,$1+$1,$8,$9*
0 Add four rect primitives between the rounded corners*
20,1,$1+$1,$2,$3,$4,$5,0*
20,1,$1+$1,$4,$5,$6,$7,0*
20,1,$1+$1,$6,$7,$8,$9,0*
20,1,$1+$1,$8,$9,$2,$3,0*%
G04 Aperture macros list end*
%ADD10RoundRect,0.050000X-0.900000X0.900000X-0.900000X-0.900000X0.900000X-0.900000X0.900000X0.900000X0*%
%ADD11RoundRect,0.050000X0.450000X0.600000X-0.450000X0.600000X-0.450000X-0.600000X0.450000X-0.600000X0*%
%ADD12RoundRect,0.050000X-0.775000X-1.000000X0.775000X-1.000000X0.775000X1.000000X-0.775000X1.000000X0*%
%ADD13RoundRect,0.050000X-1.000000X-1.000000X1.000000X-1.000000X1.000000X1.000000X-1.000000X1.000000X0*%
%ADD14O,2.850000X1.900000*%
%ADD15C,1.497000*%
%ADD16RoundRect,0.050000X0.400000X-0.500000X0.400000X0.500000X-0.400000X0.500000X-0.400000X-0.500000X0*%
%ADD17C,1.000000*%
%ADD18RoundRect,0.050000X0.750000X-0.350000X0.750000X0.350000X-0.750000X0.350000X-0.750000X-0.350000X0*%
G04 APERTURE END LIST*
D10*
%TO.C,*%
X140637500Y-54400000D03*
X140637500Y-60600000D03*
%TD*%
D11*
%TO.C,D11*%
X84800000Y-92100000D03*
X81500000Y-92100000D03*
%TD*%
%TO.C,D10*%
X84800000Y-109100000D03*
X81500000Y-109100000D03*
%TD*%
%TO.C,D15*%
X101800000Y-92100000D03*
X98500000Y-92100000D03*
%TD*%
D12*
%TO.C,S11*%
X80350000Y-97150000D03*
X85350000Y-97150000D03*
D13*
X76500000Y-88500000D03*
X76500000Y-100500000D03*
X89200000Y-88500000D03*
X89200000Y-100500000D03*
%TD*%
D11*
%TO.C,D20*%
X118800000Y-75100000D03*
X115500000Y-75100000D03*
%TD*%
%TO.C,D5*%
X67800000Y-126100000D03*
X64500000Y-126100000D03*
%TD*%
D12*
%TO.C,S20*%
X114350000Y-80150000D03*
X119350000Y-80150000D03*
D13*
X110500000Y-71500000D03*
X110500000Y-83500000D03*
X123200000Y-71500000D03*
X123200000Y-83500000D03*
%TD*%
D11*
%TO.C,D6*%
X67800000Y-109100000D03*
X64500000Y-109100000D03*
%TD*%
%TO.C,D23*%
X135800000Y-92100000D03*
X132500000Y-92100000D03*
%TD*%
D12*
%TO.C,S9*%
X80350000Y-131150000D03*
X85350000Y-131150000D03*
D13*
X76500000Y-122500000D03*
X76500000Y-134500000D03*
X89200000Y-122500000D03*
X89200000Y-134500000D03*
%TD*%
D11*
%TO.C,D9*%
X84800000Y-126100000D03*
X81500000Y-126100000D03*
%TD*%
D12*
%TO.C,S2*%
X46350000Y-114150000D03*
X51350000Y-114150000D03*
D13*
X42500000Y-105500000D03*
X42500000Y-117500000D03*
X55200000Y-105500000D03*
X55200000Y-117500000D03*
%TD*%
D12*
%TO.C,S14*%
X97350000Y-114150000D03*
X102350000Y-114150000D03*
D13*
X93500000Y-105500000D03*
X93500000Y-117500000D03*
X106200000Y-105500000D03*
X106200000Y-117500000D03*
%TD*%
D11*
%TO.C,D4*%
X50800000Y-75100000D03*
X47500000Y-75100000D03*
%TD*%
D12*
%TO.C,S1*%
X46350000Y-131150000D03*
X51350000Y-131150000D03*
D13*
X42500000Y-122500000D03*
X42500000Y-134500000D03*
X55200000Y-122500000D03*
X55200000Y-134500000D03*
%TD*%
D12*
%TO.C,S21*%
X131350000Y-131150000D03*
X136350000Y-131150000D03*
D13*
X127500000Y-122500000D03*
X127500000Y-134500000D03*
X140200000Y-122500000D03*
X140200000Y-134500000D03*
%TD*%
D12*
%TO.C,S3*%
X46350000Y-97150000D03*
X51350000Y-97150000D03*
D13*
X42500000Y-88500000D03*
X42500000Y-100500000D03*
X55200000Y-88500000D03*
X55200000Y-100500000D03*
%TD*%
D12*
%TO.C,S17*%
X114350000Y-131150000D03*
X119350000Y-131150000D03*
D13*
X110500000Y-122500000D03*
X110500000Y-134500000D03*
X123200000Y-122500000D03*
X123200000Y-134500000D03*
%TD*%
D11*
%TO.C,D24*%
X135800000Y-75100000D03*
X132500000Y-75100000D03*
%TD*%
D14*
%TO.C,*%
X42755040Y-48680000D03*
X42755040Y-51220000D03*
X42755040Y-53760000D03*
X42755040Y-56300000D03*
X42755040Y-58840000D03*
X42755040Y-61380000D03*
X42755040Y-63920000D03*
X58944960Y-63920000D03*
X58944960Y-61380000D03*
X58944960Y-58840000D03*
X58944960Y-56300000D03*
X58944960Y-53760000D03*
X58944960Y-51220000D03*
X58944960Y-48680000D03*
D15*
X49580000Y-47728000D03*
X52120000Y-47728000D03*
X49580000Y-50268000D03*
X52120000Y-50268000D03*
X46405000Y-55983000D03*
X46405000Y-54078000D03*
X54660000Y-65508000D03*
X56565000Y-65508000D03*
%TD*%
D11*
%TO.C,D14*%
X101800000Y-109100000D03*
X98500000Y-109100000D03*
%TD*%
%TO.C,D7*%
X67800000Y-92100000D03*
X64500000Y-92100000D03*
%TD*%
%TO.C,D13*%
X101800000Y-126100000D03*
X98500000Y-126100000D03*
%TD*%
%TO.C,D21*%
X135800000Y-126100000D03*
X132500000Y-126100000D03*
%TD*%
%TO.C,D1*%
X50800000Y-126100000D03*
X47500000Y-126100000D03*
%TD*%
D12*
%TO.C,S5*%
X63350000Y-131150000D03*
X68350000Y-131150000D03*
D13*
X59500000Y-122500000D03*
X59500000Y-134500000D03*
X72200000Y-122500000D03*
X72200000Y-134500000D03*
%TD*%
D12*
%TO.C,S19*%
X114350000Y-97150000D03*
X119350000Y-97150000D03*
D13*
X110500000Y-88500000D03*
X110500000Y-100500000D03*
X123200000Y-88500000D03*
X123200000Y-100500000D03*
%TD*%
D16*
%TO.C,PWR1*%
X144165500Y-53350000D03*
X144165500Y-60650000D03*
D17*
X145275500Y-55500000D03*
X145275500Y-58500000D03*
D16*
X146375500Y-53350000D03*
X146375500Y-60650000D03*
D18*
X143515500Y-59250000D03*
X143515500Y-56250000D03*
X143515500Y-54750000D03*
%TD*%
D12*
%TO.C,S12*%
X80350000Y-80150000D03*
X85350000Y-80150000D03*
D13*
X76500000Y-71500000D03*
X76500000Y-83500000D03*
X89200000Y-71500000D03*
X89200000Y-83500000D03*
%TD*%
D11*
%TO.C,D16*%
X101800000Y-75100000D03*
X98500000Y-75100000D03*
%TD*%
%TO.C,D22*%
X135800000Y-109100000D03*
X132500000Y-109100000D03*
%TD*%
D12*
%TO.C,S24*%
X131350000Y-80150000D03*
X136350000Y-80150000D03*
D13*
X127500000Y-71500000D03*
X127500000Y-83500000D03*
X140200000Y-71500000D03*
X140200000Y-83500000D03*
%TD*%
D11*
%TO.C,D3*%
X50800000Y-92100000D03*
X47500000Y-92100000D03*
%TD*%
%TO.C,D18*%
X118800000Y-109100000D03*
X115500000Y-109100000D03*
%TD*%
%TO.C,D17*%
X118800000Y-126100000D03*
X115500000Y-126100000D03*
%TD*%
D12*
%TO.C,S22*%
X131350000Y-114150000D03*
X136350000Y-114150000D03*
D13*
X127500000Y-105500000D03*
X127500000Y-117500000D03*
X140200000Y-105500000D03*
X140200000Y-117500000D03*
%TD*%
D11*
%TO.C,D19*%
X118800000Y-92100000D03*
X115500000Y-92100000D03*
%TD*%
D12*
%TO.C,S15*%
X97350000Y-97150000D03*
X102350000Y-97150000D03*
D13*
X93500000Y-88500000D03*
X93500000Y-100500000D03*
X106200000Y-88500000D03*
X106200000Y-100500000D03*
%TD*%
D12*
%TO.C,S4*%
X46350000Y-80150000D03*
X51350000Y-80150000D03*
D13*
X42500000Y-71500000D03*
X42500000Y-83500000D03*
X55200000Y-71500000D03*
X55200000Y-83500000D03*
%TD*%
D12*
%TO.C,S8*%
X63350000Y-80150000D03*
X68350000Y-80150000D03*
D13*
X59500000Y-71500000D03*
X59500000Y-83500000D03*
X72200000Y-71500000D03*
X72200000Y-83500000D03*
%TD*%
D12*
%TO.C,S6*%
X63350000Y-114150000D03*
X68350000Y-114150000D03*
D13*
X59500000Y-105500000D03*
X59500000Y-117500000D03*
X72200000Y-105500000D03*
X72200000Y-117500000D03*
%TD*%
D12*
%TO.C,S10*%
X80350000Y-114150000D03*
X85350000Y-114150000D03*
D13*
X76500000Y-105500000D03*
X76500000Y-117500000D03*
X89200000Y-105500000D03*
X89200000Y-117500000D03*
%TD*%
D11*
%TO.C,D2*%
X50800000Y-109100000D03*
X47500000Y-109100000D03*
%TD*%
D12*
%TO.C,S23*%
X131350000Y-97150000D03*
X136350000Y-97150000D03*
D13*
X127500000Y-88500000D03*
X127500000Y-100500000D03*
X140200000Y-88500000D03*
X140200000Y-100500000D03*
%TD*%
D12*
%TO.C,S7*%
X63350000Y-97150000D03*
X68350000Y-97150000D03*
D13*
X59500000Y-88500000D03*
X59500000Y-100500000D03*
X72200000Y-88500000D03*
X72200000Y-100500000D03*
%TD*%
D11*
%TO.C,D8*%
X67800000Y-75100000D03*
X64500000Y-75100000D03*
%TD*%
D12*
%TO.C,S13*%
X97350000Y-131150000D03*
X102350000Y-131150000D03*
D13*
X93500000Y-122500000D03*
X93500000Y-134500000D03*
X106200000Y-122500000D03*
X106200000Y-134500000D03*
%TD*%
D12*
%TO.C,S16*%
X97350000Y-80150000D03*
X102350000Y-80150000D03*
D13*
X93500000Y-71500000D03*
X93500000Y-83500000D03*
X106200000Y-71500000D03*
X106200000Y-83500000D03*
%TD*%
D11*
%TO.C,D12*%
X84800000Y-75100000D03*
X81500000Y-75100000D03*
%TD*%
D12*
%TO.C,S18*%
X114350000Y-114150000D03*
X119350000Y-114150000D03*
D13*
X110500000Y-105500000D03*
X110500000Y-117500000D03*
X123200000Y-105500000D03*
X123200000Y-117500000D03*
%TD*%
M02*
