%TF.GenerationSoftware,KiCad,Pcbnew,9.0.0*%
%TF.CreationDate,2025-03-16T15:31:19+09:00*%
%TF.ProjectId,left_pcb,6c656674-5f70-4636-922e-6b696361645f,0.0.1*%
%TF.SameCoordinates,Original*%
%TF.FileFunction,Profile,NP*%
%FSLAX46Y46*%
G04 Gerber Fmt 4.6, Leading zero omitted, Abs format (unit mm)*
G04 Created by KiCad (PCBNEW 9.0.0) date 2025-03-16 15:31:19*
%MOMM*%
%LPD*%
G01*
G04 APERTURE LIST*
%TA.AperFunction,Profile*%
%ADD10C,0.150000*%
%TD*%
%TA.AperFunction,Profile*%
%ADD11C,0.100000*%
%TD*%
%TA.AperFunction,Profile*%
%ADD12C,0.120000*%
%TD*%
G04 APERTURE END LIST*
D10*
X38850000Y-47200000D02*
G75*
G02*
X36650000Y-47200000I-1100000J0D01*
G01*
X36650000Y-47200000D02*
G75*
G02*
X38850000Y-47200000I1100000J0D01*
G01*
X36650000Y-45100000D02*
X146050000Y-45100000D01*
X146050000Y-141700000D02*
X36650000Y-141700000D01*
X147050000Y-140700000D02*
G75*
G02*
X146050000Y-141700000I-1000000J0D01*
G01*
X146050000Y-47200000D02*
G75*
G02*
X143850000Y-47200000I-1100000J0D01*
G01*
X143850000Y-47200000D02*
G75*
G02*
X146050000Y-47200000I1100000J0D01*
G01*
X35650000Y-46100000D02*
G75*
G02*
X36650000Y-45100000I1000000J0D01*
G01*
X36650000Y-141700000D02*
G75*
G02*
X35650000Y-140700000I0J1000000D01*
G01*
X147050000Y-46100000D02*
X147050000Y-140700000D01*
X35650000Y-140700000D02*
X35650000Y-46100000D01*
X146050000Y-45100000D02*
G75*
G02*
X147050000Y-46100000I0J-1000000D01*
G01*
X146050000Y-133600000D02*
G75*
G02*
X143850000Y-133600000I-1100000J0D01*
G01*
X143850000Y-133600000D02*
G75*
G02*
X146050000Y-133600000I1100000J0D01*
G01*
X38850000Y-133600000D02*
G75*
G02*
X36650000Y-133600000I-1100000J0D01*
G01*
X36650000Y-133600000D02*
G75*
G02*
X38850000Y-133600000I1100000J0D01*
G01*
D11*
%TO.C,S11*%
X77550000Y-97250000D02*
G75*
G02*
X76550000Y-97250000I-500000J0D01*
G01*
X76550000Y-97250000D02*
G75*
G02*
X77550000Y-97250000I500000J0D01*
G01*
X89250000Y-91750000D02*
G75*
G02*
X88050000Y-91750000I-600000J0D01*
G01*
X88050000Y-91750000D02*
G75*
G02*
X89250000Y-91750000I600000J0D01*
G01*
%TO.C,S20*%
X111550000Y-80250000D02*
G75*
G02*
X110550000Y-80250000I-500000J0D01*
G01*
X110550000Y-80250000D02*
G75*
G02*
X111550000Y-80250000I500000J0D01*
G01*
X123250000Y-74750000D02*
G75*
G02*
X122050000Y-74750000I-600000J0D01*
G01*
X122050000Y-74750000D02*
G75*
G02*
X123250000Y-74750000I600000J0D01*
G01*
%TO.C,S9*%
X77550000Y-131250000D02*
G75*
G02*
X76550000Y-131250000I-500000J0D01*
G01*
X76550000Y-131250000D02*
G75*
G02*
X77550000Y-131250000I500000J0D01*
G01*
X89250000Y-125750000D02*
G75*
G02*
X88050000Y-125750000I-600000J0D01*
G01*
X88050000Y-125750000D02*
G75*
G02*
X89250000Y-125750000I600000J0D01*
G01*
%TO.C,S2*%
X43550000Y-114250000D02*
G75*
G02*
X42550000Y-114250000I-500000J0D01*
G01*
X42550000Y-114250000D02*
G75*
G02*
X43550000Y-114250000I500000J0D01*
G01*
X55250000Y-108750000D02*
G75*
G02*
X54050000Y-108750000I-600000J0D01*
G01*
X54050000Y-108750000D02*
G75*
G02*
X55250000Y-108750000I600000J0D01*
G01*
%TO.C,S14*%
X94550000Y-114250000D02*
G75*
G02*
X93550000Y-114250000I-500000J0D01*
G01*
X93550000Y-114250000D02*
G75*
G02*
X94550000Y-114250000I500000J0D01*
G01*
X106250000Y-108750000D02*
G75*
G02*
X105050000Y-108750000I-600000J0D01*
G01*
X105050000Y-108750000D02*
G75*
G02*
X106250000Y-108750000I600000J0D01*
G01*
%TO.C,S1*%
X43550000Y-131250000D02*
G75*
G02*
X42550000Y-131250000I-500000J0D01*
G01*
X42550000Y-131250000D02*
G75*
G02*
X43550000Y-131250000I500000J0D01*
G01*
X55250000Y-125750000D02*
G75*
G02*
X54050000Y-125750000I-600000J0D01*
G01*
X54050000Y-125750000D02*
G75*
G02*
X55250000Y-125750000I600000J0D01*
G01*
%TO.C,S21*%
X128550000Y-131250000D02*
G75*
G02*
X127550000Y-131250000I-500000J0D01*
G01*
X127550000Y-131250000D02*
G75*
G02*
X128550000Y-131250000I500000J0D01*
G01*
X140250000Y-125750000D02*
G75*
G02*
X139050000Y-125750000I-600000J0D01*
G01*
X139050000Y-125750000D02*
G75*
G02*
X140250000Y-125750000I600000J0D01*
G01*
%TO.C,S3*%
X43550000Y-97250000D02*
G75*
G02*
X42550000Y-97250000I-500000J0D01*
G01*
X42550000Y-97250000D02*
G75*
G02*
X43550000Y-97250000I500000J0D01*
G01*
X55250000Y-91750000D02*
G75*
G02*
X54050000Y-91750000I-600000J0D01*
G01*
X54050000Y-91750000D02*
G75*
G02*
X55250000Y-91750000I600000J0D01*
G01*
%TO.C,S17*%
X111550000Y-131250000D02*
G75*
G02*
X110550000Y-131250000I-500000J0D01*
G01*
X110550000Y-131250000D02*
G75*
G02*
X111550000Y-131250000I500000J0D01*
G01*
X123250000Y-125750000D02*
G75*
G02*
X122050000Y-125750000I-600000J0D01*
G01*
X122050000Y-125750000D02*
G75*
G02*
X123250000Y-125750000I600000J0D01*
G01*
D12*
%TO.C,*%
X46151000Y-54509800D02*
X46836800Y-53824000D01*
X46151000Y-55551200D02*
X46151000Y-54509800D01*
X46151000Y-55551200D02*
X46836800Y-56237000D01*
X46836800Y-53824000D02*
X48437000Y-53824000D01*
X48437000Y-53824000D02*
X48818000Y-54205000D01*
X48437000Y-56237000D02*
X46836800Y-56237000D01*
X48437000Y-56237000D02*
X48818000Y-55856000D01*
X48818000Y-54205000D02*
X48818000Y-55856000D01*
X49326000Y-49836200D02*
X49326000Y-48159800D01*
X49326000Y-49836200D02*
X50011800Y-50522000D01*
X50011800Y-47474000D02*
X49326000Y-48159800D01*
X50011800Y-47474000D02*
X51688200Y-47474000D01*
X50011800Y-50522000D02*
X51688200Y-50522000D01*
X51688200Y-47474000D02*
X52374000Y-48159800D01*
X51688200Y-50522000D02*
X52374000Y-49836200D01*
X52374000Y-49836200D02*
X52374000Y-48159800D01*
X54406000Y-65076200D02*
X54406500Y-63476000D01*
X54406000Y-65076200D02*
X55091800Y-65762000D01*
X54406500Y-63476000D02*
X54787500Y-63095000D01*
X54787500Y-63095000D02*
X56438500Y-63095000D01*
X56133200Y-65762000D02*
X55091800Y-65762000D01*
X56438500Y-63095000D02*
X56819500Y-63476000D01*
X56819000Y-65076200D02*
X56133200Y-65762000D01*
X56819500Y-63476000D02*
X56819000Y-65076200D01*
D11*
%TO.C,S5*%
X60550000Y-131250000D02*
G75*
G02*
X59550000Y-131250000I-500000J0D01*
G01*
X59550000Y-131250000D02*
G75*
G02*
X60550000Y-131250000I500000J0D01*
G01*
X72250000Y-125750000D02*
G75*
G02*
X71050000Y-125750000I-600000J0D01*
G01*
X71050000Y-125750000D02*
G75*
G02*
X72250000Y-125750000I600000J0D01*
G01*
%TO.C,S19*%
X111550000Y-97250000D02*
G75*
G02*
X110550000Y-97250000I-500000J0D01*
G01*
X110550000Y-97250000D02*
G75*
G02*
X111550000Y-97250000I500000J0D01*
G01*
X123250000Y-91750000D02*
G75*
G02*
X122050000Y-91750000I-600000J0D01*
G01*
X122050000Y-91750000D02*
G75*
G02*
X123250000Y-91750000I600000J0D01*
G01*
%TO.C,S12*%
X77550000Y-80250000D02*
G75*
G02*
X76550000Y-80250000I-500000J0D01*
G01*
X76550000Y-80250000D02*
G75*
G02*
X77550000Y-80250000I500000J0D01*
G01*
X89250000Y-74750000D02*
G75*
G02*
X88050000Y-74750000I-600000J0D01*
G01*
X88050000Y-74750000D02*
G75*
G02*
X89250000Y-74750000I600000J0D01*
G01*
%TO.C,S24*%
X128550000Y-80250000D02*
G75*
G02*
X127550000Y-80250000I-500000J0D01*
G01*
X127550000Y-80250000D02*
G75*
G02*
X128550000Y-80250000I500000J0D01*
G01*
X140250000Y-74750000D02*
G75*
G02*
X139050000Y-74750000I-600000J0D01*
G01*
X139050000Y-74750000D02*
G75*
G02*
X140250000Y-74750000I600000J0D01*
G01*
%TO.C,S22*%
X128550000Y-114250000D02*
G75*
G02*
X127550000Y-114250000I-500000J0D01*
G01*
X127550000Y-114250000D02*
G75*
G02*
X128550000Y-114250000I500000J0D01*
G01*
X140250000Y-108750000D02*
G75*
G02*
X139050000Y-108750000I-600000J0D01*
G01*
X139050000Y-108750000D02*
G75*
G02*
X140250000Y-108750000I600000J0D01*
G01*
%TO.C,S15*%
X94550000Y-97250000D02*
G75*
G02*
X93550000Y-97250000I-500000J0D01*
G01*
X93550000Y-97250000D02*
G75*
G02*
X94550000Y-97250000I500000J0D01*
G01*
X106250000Y-91750000D02*
G75*
G02*
X105050000Y-91750000I-600000J0D01*
G01*
X105050000Y-91750000D02*
G75*
G02*
X106250000Y-91750000I600000J0D01*
G01*
%TO.C,S4*%
X43550000Y-80250000D02*
G75*
G02*
X42550000Y-80250000I-500000J0D01*
G01*
X42550000Y-80250000D02*
G75*
G02*
X43550000Y-80250000I500000J0D01*
G01*
X55250000Y-74750000D02*
G75*
G02*
X54050000Y-74750000I-600000J0D01*
G01*
X54050000Y-74750000D02*
G75*
G02*
X55250000Y-74750000I600000J0D01*
G01*
%TO.C,S8*%
X60550000Y-80250000D02*
G75*
G02*
X59550000Y-80250000I-500000J0D01*
G01*
X59550000Y-80250000D02*
G75*
G02*
X60550000Y-80250000I500000J0D01*
G01*
X72250000Y-74750000D02*
G75*
G02*
X71050000Y-74750000I-600000J0D01*
G01*
X71050000Y-74750000D02*
G75*
G02*
X72250000Y-74750000I600000J0D01*
G01*
%TO.C,S6*%
X60550000Y-114250000D02*
G75*
G02*
X59550000Y-114250000I-500000J0D01*
G01*
X59550000Y-114250000D02*
G75*
G02*
X60550000Y-114250000I500000J0D01*
G01*
X72250000Y-108750000D02*
G75*
G02*
X71050000Y-108750000I-600000J0D01*
G01*
X71050000Y-108750000D02*
G75*
G02*
X72250000Y-108750000I600000J0D01*
G01*
%TO.C,S10*%
X77550000Y-114250000D02*
G75*
G02*
X76550000Y-114250000I-500000J0D01*
G01*
X76550000Y-114250000D02*
G75*
G02*
X77550000Y-114250000I500000J0D01*
G01*
X89250000Y-108750000D02*
G75*
G02*
X88050000Y-108750000I-600000J0D01*
G01*
X88050000Y-108750000D02*
G75*
G02*
X89250000Y-108750000I600000J0D01*
G01*
%TO.C,S23*%
X128550000Y-97250000D02*
G75*
G02*
X127550000Y-97250000I-500000J0D01*
G01*
X127550000Y-97250000D02*
G75*
G02*
X128550000Y-97250000I500000J0D01*
G01*
X140250000Y-91750000D02*
G75*
G02*
X139050000Y-91750000I-600000J0D01*
G01*
X139050000Y-91750000D02*
G75*
G02*
X140250000Y-91750000I600000J0D01*
G01*
%TO.C,S7*%
X60550000Y-97250000D02*
G75*
G02*
X59550000Y-97250000I-500000J0D01*
G01*
X59550000Y-97250000D02*
G75*
G02*
X60550000Y-97250000I500000J0D01*
G01*
X72250000Y-91750000D02*
G75*
G02*
X71050000Y-91750000I-600000J0D01*
G01*
X71050000Y-91750000D02*
G75*
G02*
X72250000Y-91750000I600000J0D01*
G01*
%TO.C,S13*%
X94550000Y-131250000D02*
G75*
G02*
X93550000Y-131250000I-500000J0D01*
G01*
X93550000Y-131250000D02*
G75*
G02*
X94550000Y-131250000I500000J0D01*
G01*
X106250000Y-125750000D02*
G75*
G02*
X105050000Y-125750000I-600000J0D01*
G01*
X105050000Y-125750000D02*
G75*
G02*
X106250000Y-125750000I600000J0D01*
G01*
%TO.C,S16*%
X94550000Y-80250000D02*
G75*
G02*
X93550000Y-80250000I-500000J0D01*
G01*
X93550000Y-80250000D02*
G75*
G02*
X94550000Y-80250000I500000J0D01*
G01*
X106250000Y-74750000D02*
G75*
G02*
X105050000Y-74750000I-600000J0D01*
G01*
X105050000Y-74750000D02*
G75*
G02*
X106250000Y-74750000I600000J0D01*
G01*
%TO.C,S18*%
X111550000Y-114250000D02*
G75*
G02*
X110550000Y-114250000I-500000J0D01*
G01*
X110550000Y-114250000D02*
G75*
G02*
X111550000Y-114250000I500000J0D01*
G01*
X123250000Y-108750000D02*
G75*
G02*
X122050000Y-108750000I-600000J0D01*
G01*
X122050000Y-108750000D02*
G75*
G02*
X123250000Y-108750000I600000J0D01*
G01*
%TD*%
M02*
