M48
; DRILL file {KiCad 9.0.0} date 2025-03-16T15:31:19+0900
; FORMAT={-:-/ absolute / inch / decimal}
; #@! TF.CreationDate,2025-03-16T15:31:19+09:00
; #@! TF.GenerationSoftware,Kicad,Pcbnew,9.0.0
; #@! TF.FileFunction,Plated,1,2,PTH
FMAT,2
INCH
; #@! TA.AperFunction,Plated,PTH,ViaDrill
T1C0.0118
; #@! TA.AperFunction,Plated,PTH,ComponentDrill
T2C0.0400
%
G90
G05
T1
X1.5539Y-1.9165
X1.5679Y-2.2274
X1.5709Y-2.0276
X1.5709Y-2.1358
X1.6004Y-2.3209
X1.935Y-3.5079
X1.935Y-3.7756
X1.935Y-4.4567
X1.9547Y-5.1299
X2.6122Y-3.5138
X2.6122Y-3.7677
X2.6122Y-4.4449
X2.628Y-5.1417
X3.2697Y-3.4961
X3.2697Y-3.7559
X3.2697Y-4.4331
X3.2894Y-5.1457
X3.935Y-3.4843
X3.935Y-3.7795
X3.935Y-4.4291
X3.9587Y-5.1535
X4.6181Y-3.2638
X4.6181Y-3.748
X4.6181Y-4.4409
X4.628Y-5.1437
X5.2106Y-2.7008
X5.2874Y-3.0984
X5.2874Y-3.7697
X5.2874Y-4.4646
X5.3091Y-5.1457
X5.6201Y-2.2736
T2
X1.827Y-2.1291
X1.827Y-2.2041
X1.952Y-1.8791
X1.952Y-1.9791
X2.052Y-1.8791
X2.052Y-1.9791
X2.152Y-2.5791
X2.227Y-2.5791
M30
